<mxfile host="Electron" modified="2023-11-08T22:30:42.245Z" agent="Mozilla/5.0 (X11; Linux x86_64) AppleWebKit/537.36 (KHTML, like Gecko) draw.io/22.0.3 Chrome/114.0.5735.289 Electron/25.8.4 Safari/537.36" etag="OjaJgldmD6_Hr2DfRXPH" version="22.0.3" type="device" pages="3">
  <diagram name="flujo principal" id="SvRP-1oFVG1JVI0qtUEA">
    <mxGraphModel dx="1485" dy="1101" grid="1" gridSize="10" guides="1" tooltips="1" connect="1" arrows="1" fold="1" page="1" pageScale="1" pageWidth="3300" pageHeight="2339" math="0" shadow="0">
      <root>
        <mxCell id="0" />
        <mxCell id="1" parent="0" />
        <mxCell id="0f4xCiVm6X6gQx0xvUL8-81" style="edgeStyle=orthogonalEdgeStyle;rounded=0;orthogonalLoop=1;jettySize=auto;html=1;exitX=0.5;exitY=1;exitDx=0;exitDy=0;entryX=0.5;entryY=0;entryDx=0;entryDy=0;" parent="1" target="0f4xCiVm6X6gQx0xvUL8-80" edge="1">
          <mxGeometry relative="1" as="geometry">
            <mxPoint x="680" y="100" as="sourcePoint" />
          </mxGeometry>
        </mxCell>
        <mxCell id="0f4xCiVm6X6gQx0xvUL8-10" style="edgeStyle=orthogonalEdgeStyle;rounded=0;orthogonalLoop=1;jettySize=auto;html=1;exitX=1;exitY=0.5;exitDx=0;exitDy=0;entryX=0;entryY=0.5;entryDx=0;entryDy=0;" parent="1" target="0f4xCiVm6X6gQx0xvUL8-8" edge="1">
          <mxGeometry relative="1" as="geometry">
            <mxPoint x="1070" y="650" as="sourcePoint" />
          </mxGeometry>
        </mxCell>
        <mxCell id="0f4xCiVm6X6gQx0xvUL8-78" style="edgeStyle=orthogonalEdgeStyle;rounded=0;orthogonalLoop=1;jettySize=auto;html=1;exitX=0.5;exitY=1;exitDx=0;exitDy=0;entryX=1;entryY=0.5;entryDx=0;entryDy=0;" parent="1" source="0f4xCiVm6X6gQx0xvUL8-8" target="0f4xCiVm6X6gQx0xvUL8-22" edge="1">
          <mxGeometry relative="1" as="geometry" />
        </mxCell>
        <mxCell id="0f4xCiVm6X6gQx0xvUL8-79" value="IP VALID" style="edgeLabel;html=1;align=center;verticalAlign=middle;resizable=0;points=[];" parent="0f4xCiVm6X6gQx0xvUL8-78" vertex="1" connectable="0">
          <mxGeometry x="-0.6424" y="3" relative="1" as="geometry">
            <mxPoint as="offset" />
          </mxGeometry>
        </mxCell>
        <mxCell id="0f4xCiVm6X6gQx0xvUL8-8" value="smartconfig" style="shape=process;whiteSpace=wrap;html=1;backgroundOutline=1;fillColor=#dae8fc;strokeColor=#6c8ebf;" parent="1" vertex="1">
          <mxGeometry x="1170" y="620" width="120" height="60" as="geometry" />
        </mxCell>
        <mxCell id="0f4xCiVm6X6gQx0xvUL8-18" style="edgeStyle=orthogonalEdgeStyle;rounded=0;orthogonalLoop=1;jettySize=auto;html=1;exitX=1;exitY=0.5;exitDx=0;exitDy=0;entryX=0;entryY=0.5;entryDx=0;entryDy=0;" parent="1" source="0f4xCiVm6X6gQx0xvUL8-14" target="0f4xCiVm6X6gQx0xvUL8-17" edge="1">
          <mxGeometry relative="1" as="geometry" />
        </mxCell>
        <mxCell id="Zdb9aHJPwX9mJ4DxpiSj-17" style="edgeStyle=elbowEdgeStyle;rounded=0;orthogonalLoop=1;jettySize=auto;html=1;exitX=0;exitY=0.5;exitDx=0;exitDy=0;entryX=0.5;entryY=0;entryDx=0;entryDy=0;fontSize=12;startSize=8;endSize=8;" parent="1" source="0f4xCiVm6X6gQx0xvUL8-14" target="Zdb9aHJPwX9mJ4DxpiSj-16" edge="1">
          <mxGeometry relative="1" as="geometry">
            <Array as="points">
              <mxPoint x="570" y="910" />
            </Array>
          </mxGeometry>
        </mxCell>
        <mxCell id="0f4xCiVm6X6gQx0xvUL8-14" value="CONNECTING WIFI" style="shape=process;whiteSpace=wrap;html=1;backgroundOutline=1;fillColor=#dae8fc;strokeColor=#6c8ebf;" parent="1" vertex="1">
          <mxGeometry x="620" y="770" width="120" height="60" as="geometry" />
        </mxCell>
        <mxCell id="0f4xCiVm6X6gQx0xvUL8-20" style="edgeStyle=orthogonalEdgeStyle;rounded=0;orthogonalLoop=1;jettySize=auto;html=1;exitX=0.5;exitY=0;exitDx=0;exitDy=0;entryX=0.592;entryY=0;entryDx=0;entryDy=0;entryPerimeter=0;" parent="1" source="0f4xCiVm6X6gQx0xvUL8-17" target="0f4xCiVm6X6gQx0xvUL8-14" edge="1">
          <mxGeometry relative="1" as="geometry" />
        </mxCell>
        <mxCell id="0f4xCiVm6X6gQx0xvUL8-21" value="NO IP" style="edgeLabel;html=1;align=center;verticalAlign=middle;resizable=0;points=[];" parent="0f4xCiVm6X6gQx0xvUL8-20" vertex="1" connectable="0">
          <mxGeometry x="0.1092" relative="1" as="geometry">
            <mxPoint as="offset" />
          </mxGeometry>
        </mxCell>
        <mxCell id="0f4xCiVm6X6gQx0xvUL8-17" value="ERROR_WIFI" style="rounded=1;whiteSpace=wrap;html=1;fillColor=#f8cecc;strokeColor=#b85450;" parent="1" vertex="1">
          <mxGeometry x="820" y="770" width="120" height="60" as="geometry" />
        </mxCell>
        <mxCell id="0f4xCiVm6X6gQx0xvUL8-64" style="edgeStyle=orthogonalEdgeStyle;rounded=0;orthogonalLoop=1;jettySize=auto;html=1;exitX=0.5;exitY=1;exitDx=0;exitDy=0;" parent="1" source="0f4xCiVm6X6gQx0xvUL8-22" target="0f4xCiVm6X6gQx0xvUL8-63" edge="1">
          <mxGeometry relative="1" as="geometry" />
        </mxCell>
        <mxCell id="0f4xCiVm6X6gQx0xvUL8-22" value="GET NTP" style="shape=process;whiteSpace=wrap;html=1;backgroundOutline=1;fillColor=#dae8fc;strokeColor=#6c8ebf;" parent="1" vertex="1">
          <mxGeometry x="620" y="920" width="120" height="60" as="geometry" />
        </mxCell>
        <mxCell id="0f4xCiVm6X6gQx0xvUL8-28" style="edgeStyle=orthogonalEdgeStyle;rounded=0;orthogonalLoop=1;jettySize=auto;html=1;exitX=0.75;exitY=0;exitDx=0;exitDy=0;entryX=1;entryY=0.5;entryDx=0;entryDy=0;curved=1;" parent="1" source="0f4xCiVm6X6gQx0xvUL8-17" target="0f4xCiVm6X6gQx0xvUL8-17" edge="1">
          <mxGeometry relative="1" as="geometry" />
        </mxCell>
        <mxCell id="0f4xCiVm6X6gQx0xvUL8-29" value="RETRY" style="edgeLabel;html=1;align=center;verticalAlign=middle;resizable=0;points=[];" parent="0f4xCiVm6X6gQx0xvUL8-28" vertex="1" connectable="0">
          <mxGeometry x="0.1714" y="-1" relative="1" as="geometry">
            <mxPoint as="offset" />
          </mxGeometry>
        </mxCell>
        <mxCell id="0f4xCiVm6X6gQx0xvUL8-30" style="edgeStyle=orthogonalEdgeStyle;rounded=0;orthogonalLoop=1;jettySize=auto;html=1;exitX=0.75;exitY=0;exitDx=0;exitDy=0;entryX=1;entryY=0.5;entryDx=0;entryDy=0;curved=1;" parent="1" source="0f4xCiVm6X6gQx0xvUL8-8" target="0f4xCiVm6X6gQx0xvUL8-8" edge="1">
          <mxGeometry relative="1" as="geometry" />
        </mxCell>
        <mxCell id="0f4xCiVm6X6gQx0xvUL8-31" value="RETRY" style="edgeLabel;html=1;align=center;verticalAlign=middle;resizable=0;points=[];" parent="0f4xCiVm6X6gQx0xvUL8-30" vertex="1" connectable="0">
          <mxGeometry x="-0.1571" y="-4" relative="1" as="geometry">
            <mxPoint as="offset" />
          </mxGeometry>
        </mxCell>
        <mxCell id="TolWPNAoK_rUhl8P85Vf-2" style="edgeStyle=orthogonalEdgeStyle;shape=connector;rounded=0;orthogonalLoop=1;jettySize=auto;html=1;exitX=0.5;exitY=1;exitDx=0;exitDy=0;labelBackgroundColor=default;strokeColor=default;fontFamily=Helvetica;fontSize=12;fontColor=default;endArrow=classic;startSize=8;endSize=8;" parent="1" source="0f4xCiVm6X6gQx0xvUL8-33" target="TolWPNAoK_rUhl8P85Vf-1" edge="1">
          <mxGeometry relative="1" as="geometry" />
        </mxCell>
        <mxCell id="0f4xCiVm6X6gQx0xvUL8-33" value="LECTURA TEMPERATURA" style="shape=process;whiteSpace=wrap;html=1;backgroundOutline=1;fillColor=#dae8fc;strokeColor=#6c8ebf;" parent="1" vertex="1">
          <mxGeometry x="160" y="630" width="120" height="60" as="geometry" />
        </mxCell>
        <mxCell id="0f4xCiVm6X6gQx0xvUL8-67" style="edgeStyle=orthogonalEdgeStyle;rounded=0;orthogonalLoop=1;jettySize=auto;html=1;exitX=1;exitY=0.5;exitDx=0;exitDy=0;entryX=0;entryY=0.5;entryDx=0;entryDy=0;" parent="1" source="0f4xCiVm6X6gQx0xvUL8-63" target="0f4xCiVm6X6gQx0xvUL8-66" edge="1">
          <mxGeometry relative="1" as="geometry" />
        </mxCell>
        <mxCell id="0f4xCiVm6X6gQx0xvUL8-69" value="NO" style="edgeLabel;html=1;align=center;verticalAlign=middle;resizable=0;points=[];" parent="0f4xCiVm6X6gQx0xvUL8-67" vertex="1" connectable="0">
          <mxGeometry x="-0.2857" y="3" relative="1" as="geometry">
            <mxPoint as="offset" />
          </mxGeometry>
        </mxCell>
        <mxCell id="Zdb9aHJPwX9mJ4DxpiSj-10" style="rounded=0;orthogonalLoop=1;jettySize=auto;html=1;exitX=0;exitY=0.5;exitDx=0;exitDy=0;entryX=0.5;entryY=0;entryDx=0;entryDy=0;fontSize=12;startSize=8;endSize=8;" parent="1" source="0f4xCiVm6X6gQx0xvUL8-63" target="Zdb9aHJPwX9mJ4DxpiSj-7" edge="1">
          <mxGeometry relative="1" as="geometry">
            <Array as="points">
              <mxPoint x="440" y="1110" />
            </Array>
          </mxGeometry>
        </mxCell>
        <mxCell id="Zdb9aHJPwX9mJ4DxpiSj-11" value="SI" style="edgeLabel;html=1;align=center;verticalAlign=middle;resizable=0;points=[];fontSize=16;" parent="Zdb9aHJPwX9mJ4DxpiSj-10" vertex="1" connectable="0">
          <mxGeometry x="-0.4233" y="2" relative="1" as="geometry">
            <mxPoint as="offset" />
          </mxGeometry>
        </mxCell>
        <mxCell id="0f4xCiVm6X6gQx0xvUL8-63" value="NTP OK?" style="rhombus;whiteSpace=wrap;html=1;fillColor=#dae8fc;strokeColor=#6c8ebf;" parent="1" vertex="1">
          <mxGeometry x="610" y="1070" width="140" height="80" as="geometry" />
        </mxCell>
        <mxCell id="0f4xCiVm6X6gQx0xvUL8-197" style="edgeStyle=orthogonalEdgeStyle;rounded=0;orthogonalLoop=1;jettySize=auto;html=1;exitX=1;exitY=0.5;exitDx=0;exitDy=0;entryX=0;entryY=0.5;entryDx=0;entryDy=0;" parent="1" source="0f4xCiVm6X6gQx0xvUL8-66" target="0f4xCiVm6X6gQx0xvUL8-196" edge="1">
          <mxGeometry relative="1" as="geometry" />
        </mxCell>
        <mxCell id="0f4xCiVm6X6gQx0xvUL8-66" value="ERROR_NTP" style="rounded=1;whiteSpace=wrap;html=1;fillColor=#f8cecc;strokeColor=#b85450;shadow=1;" parent="1" vertex="1">
          <mxGeometry x="890" y="1090" width="100" height="40" as="geometry" />
        </mxCell>
        <mxCell id="0f4xCiVm6X6gQx0xvUL8-72" style="edgeStyle=orthogonalEdgeStyle;rounded=0;orthogonalLoop=1;jettySize=auto;html=1;exitX=0.5;exitY=1;exitDx=0;exitDy=0;entryX=0.5;entryY=0;entryDx=0;entryDy=0;" parent="1" source="0f4xCiVm6X6gQx0xvUL8-70" target="0f4xCiVm6X6gQx0xvUL8-71" edge="1">
          <mxGeometry relative="1" as="geometry" />
        </mxCell>
        <mxCell id="0f4xCiVm6X6gQx0xvUL8-70" value="CONNECT MQTT" style="shape=process;whiteSpace=wrap;html=1;backgroundOutline=1;fillColor=#dae8fc;strokeColor=#6c8ebf;" parent="1" vertex="1">
          <mxGeometry x="620" y="1210" width="120" height="60" as="geometry" />
        </mxCell>
        <mxCell id="0f4xCiVm6X6gQx0xvUL8-74" style="edgeStyle=orthogonalEdgeStyle;rounded=0;orthogonalLoop=1;jettySize=auto;html=1;exitX=1;exitY=0.5;exitDx=0;exitDy=0;entryX=0;entryY=0.5;entryDx=0;entryDy=0;" parent="1" source="0f4xCiVm6X6gQx0xvUL8-71" target="0f4xCiVm6X6gQx0xvUL8-73" edge="1">
          <mxGeometry relative="1" as="geometry" />
        </mxCell>
        <mxCell id="0f4xCiVm6X6gQx0xvUL8-75" value="NO" style="edgeLabel;html=1;align=center;verticalAlign=middle;resizable=0;points=[];" parent="0f4xCiVm6X6gQx0xvUL8-74" vertex="1" connectable="0">
          <mxGeometry x="-0.1857" y="-1" relative="1" as="geometry">
            <mxPoint as="offset" />
          </mxGeometry>
        </mxCell>
        <mxCell id="0f4xCiVm6X6gQx0xvUL8-136" style="edgeStyle=orthogonalEdgeStyle;rounded=0;orthogonalLoop=1;jettySize=auto;html=1;exitX=0.5;exitY=1;exitDx=0;exitDy=0;entryX=0.5;entryY=0;entryDx=0;entryDy=0;" parent="1" source="0f4xCiVm6X6gQx0xvUL8-71" target="0f4xCiVm6X6gQx0xvUL8-134" edge="1">
          <mxGeometry relative="1" as="geometry" />
        </mxCell>
        <mxCell id="0f4xCiVm6X6gQx0xvUL8-71" value="MQTT OK?" style="rhombus;whiteSpace=wrap;html=1;fillColor=#dae8fc;strokeColor=#6c8ebf;" parent="1" vertex="1">
          <mxGeometry x="610" y="1340" width="140" height="80" as="geometry" />
        </mxCell>
        <mxCell id="0f4xCiVm6X6gQx0xvUL8-222" style="edgeStyle=orthogonalEdgeStyle;rounded=0;orthogonalLoop=1;jettySize=auto;html=1;exitX=0.5;exitY=0;exitDx=0;exitDy=0;entryX=1;entryY=0.5;entryDx=0;entryDy=0;" parent="1" source="0f4xCiVm6X6gQx0xvUL8-73" target="0f4xCiVm6X6gQx0xvUL8-70" edge="1">
          <mxGeometry relative="1" as="geometry" />
        </mxCell>
        <mxCell id="0f4xCiVm6X6gQx0xvUL8-223" value="RETRY" style="edgeLabel;html=1;align=center;verticalAlign=middle;resizable=0;points=[];" parent="0f4xCiVm6X6gQx0xvUL8-222" vertex="1" connectable="0">
          <mxGeometry x="0.2527" y="-3" relative="1" as="geometry">
            <mxPoint as="offset" />
          </mxGeometry>
        </mxCell>
        <mxCell id="0f4xCiVm6X6gQx0xvUL8-73" value="ERROR_MQTT" style="rounded=1;whiteSpace=wrap;html=1;fillColor=#f8cecc;strokeColor=#b85450;shadow=1;" parent="1" vertex="1">
          <mxGeometry x="890" y="1360" width="100" height="40" as="geometry" />
        </mxCell>
        <mxCell id="0f4xCiVm6X6gQx0xvUL8-83" style="edgeStyle=orthogonalEdgeStyle;rounded=0;orthogonalLoop=1;jettySize=auto;html=1;exitX=0;exitY=0.5;exitDx=0;exitDy=0;entryX=1;entryY=0.5;entryDx=0;entryDy=0;" parent="1" source="0f4xCiVm6X6gQx0xvUL8-80" target="0f4xCiVm6X6gQx0xvUL8-82" edge="1">
          <mxGeometry relative="1" as="geometry" />
        </mxCell>
        <mxCell id="0f4xCiVm6X6gQx0xvUL8-84" value="NO OK" style="edgeLabel;html=1;align=center;verticalAlign=middle;resizable=0;points=[];" parent="0f4xCiVm6X6gQx0xvUL8-83" vertex="1" connectable="0">
          <mxGeometry x="0.1571" y="-1" relative="1" as="geometry">
            <mxPoint as="offset" />
          </mxGeometry>
        </mxCell>
        <mxCell id="0f4xCiVm6X6gQx0xvUL8-86" style="edgeStyle=orthogonalEdgeStyle;rounded=0;orthogonalLoop=1;jettySize=auto;html=1;exitX=0.5;exitY=1;exitDx=0;exitDy=0;entryX=0.5;entryY=0;entryDx=0;entryDy=0;" parent="1" source="0f4xCiVm6X6gQx0xvUL8-80" target="0f4xCiVm6X6gQx0xvUL8-85" edge="1">
          <mxGeometry relative="1" as="geometry" />
        </mxCell>
        <mxCell id="0f4xCiVm6X6gQx0xvUL8-89" value="OK" style="edgeLabel;html=1;align=center;verticalAlign=middle;resizable=0;points=[];" parent="0f4xCiVm6X6gQx0xvUL8-86" vertex="1" connectable="0">
          <mxGeometry x="-0.22" relative="1" as="geometry">
            <mxPoint as="offset" />
          </mxGeometry>
        </mxCell>
        <mxCell id="0f4xCiVm6X6gQx0xvUL8-80" value="INIT_NVS" style="shape=process;whiteSpace=wrap;html=1;backgroundOutline=1;fillColor=#dae8fc;strokeColor=#6c8ebf;" parent="1" vertex="1">
          <mxGeometry x="620" y="160" width="120" height="60" as="geometry" />
        </mxCell>
        <mxCell id="0f4xCiVm6X6gQx0xvUL8-138" style="edgeStyle=orthogonalEdgeStyle;rounded=0;orthogonalLoop=1;jettySize=auto;html=1;exitX=0;exitY=0.25;exitDx=0;exitDy=0;entryX=1;entryY=0;entryDx=0;entryDy=0;curved=1;" parent="1" source="0f4xCiVm6X6gQx0xvUL8-82" target="0f4xCiVm6X6gQx0xvUL8-100" edge="1">
          <mxGeometry relative="1" as="geometry" />
        </mxCell>
        <mxCell id="0f4xCiVm6X6gQx0xvUL8-82" value="ERROR_NVS" style="rounded=1;whiteSpace=wrap;html=1;fillColor=#f8cecc;strokeColor=#b85450;shadow=1;" parent="1" vertex="1">
          <mxGeometry x="380" y="170" width="100" height="40" as="geometry" />
        </mxCell>
        <mxCell id="0f4xCiVm6X6gQx0xvUL8-103" style="edgeStyle=orthogonalEdgeStyle;rounded=0;orthogonalLoop=1;jettySize=auto;html=1;exitX=0;exitY=0.5;exitDx=0;exitDy=0;" parent="1" source="0f4xCiVm6X6gQx0xvUL8-85" target="0f4xCiVm6X6gQx0xvUL8-102" edge="1">
          <mxGeometry relative="1" as="geometry" />
        </mxCell>
        <mxCell id="0f4xCiVm6X6gQx0xvUL8-104" value="NO OK" style="edgeLabel;html=1;align=center;verticalAlign=middle;resizable=0;points=[];" parent="0f4xCiVm6X6gQx0xvUL8-103" vertex="1" connectable="0">
          <mxGeometry x="-0.1571" y="-1" relative="1" as="geometry">
            <mxPoint as="offset" />
          </mxGeometry>
        </mxCell>
        <mxCell id="0f4xCiVm6X6gQx0xvUL8-113" style="edgeStyle=orthogonalEdgeStyle;rounded=0;orthogonalLoop=1;jettySize=auto;html=1;exitX=0.5;exitY=1;exitDx=0;exitDy=0;entryX=0.5;entryY=0;entryDx=0;entryDy=0;" parent="1" source="0f4xCiVm6X6gQx0xvUL8-85" target="0f4xCiVm6X6gQx0xvUL8-112" edge="1">
          <mxGeometry relative="1" as="geometry" />
        </mxCell>
        <mxCell id="0f4xCiVm6X6gQx0xvUL8-116" value="OK" style="edgeLabel;html=1;align=center;verticalAlign=middle;resizable=0;points=[];" parent="0f4xCiVm6X6gQx0xvUL8-113" vertex="1" connectable="0">
          <mxGeometry x="-0.25" y="2" relative="1" as="geometry">
            <mxPoint as="offset" />
          </mxGeometry>
        </mxCell>
        <mxCell id="0f4xCiVm6X6gQx0xvUL8-85" value="INIT APP" style="shape=process;whiteSpace=wrap;html=1;backgroundOutline=1;fillColor=#dae8fc;strokeColor=#6c8ebf;" parent="1" vertex="1">
          <mxGeometry x="620" y="320" width="120" height="60" as="geometry" />
        </mxCell>
        <mxCell id="0f4xCiVm6X6gQx0xvUL8-94" style="edgeStyle=orthogonalEdgeStyle;rounded=0;orthogonalLoop=1;jettySize=auto;html=1;exitX=1;exitY=0.5;exitDx=0;exitDy=0;entryX=0;entryY=0.5;entryDx=0;entryDy=0;" parent="1" source="0f4xCiVm6X6gQx0xvUL8-92" edge="1">
          <mxGeometry relative="1" as="geometry">
            <mxPoint x="970" y="650" as="targetPoint" />
          </mxGeometry>
        </mxCell>
        <mxCell id="0f4xCiVm6X6gQx0xvUL8-96" value="SI" style="edgeLabel;html=1;align=center;verticalAlign=middle;resizable=0;points=[];" parent="0f4xCiVm6X6gQx0xvUL8-94" vertex="1" connectable="0">
          <mxGeometry x="-0.2364" relative="1" as="geometry">
            <mxPoint as="offset" />
          </mxGeometry>
        </mxCell>
        <mxCell id="0f4xCiVm6X6gQx0xvUL8-95" style="edgeStyle=orthogonalEdgeStyle;rounded=0;orthogonalLoop=1;jettySize=auto;html=1;exitX=0.5;exitY=1;exitDx=0;exitDy=0;entryX=0.5;entryY=0;entryDx=0;entryDy=0;" parent="1" source="0f4xCiVm6X6gQx0xvUL8-92" target="0f4xCiVm6X6gQx0xvUL8-14" edge="1">
          <mxGeometry relative="1" as="geometry" />
        </mxCell>
        <mxCell id="0f4xCiVm6X6gQx0xvUL8-97" value="NO" style="edgeLabel;html=1;align=center;verticalAlign=middle;resizable=0;points=[];" parent="0f4xCiVm6X6gQx0xvUL8-95" vertex="1" connectable="0">
          <mxGeometry x="-0.25" y="4" relative="1" as="geometry">
            <mxPoint as="offset" />
          </mxGeometry>
        </mxCell>
        <mxCell id="0f4xCiVm6X6gQx0xvUL8-92" value="FACTORY?" style="rhombus;whiteSpace=wrap;html=1;fillColor=#dae8fc;strokeColor=#6c8ebf;" parent="1" vertex="1">
          <mxGeometry x="610" y="610" width="140" height="80" as="geometry" />
        </mxCell>
        <mxCell id="0f4xCiVm6X6gQx0xvUL8-98" value="STARTING" style="ellipse;whiteSpace=wrap;html=1;fillColor=#fff2cc;strokeColor=#d6b656;" parent="1" vertex="1">
          <mxGeometry x="625" y="50" width="110" height="60" as="geometry" />
        </mxCell>
        <mxCell id="0f4xCiVm6X6gQx0xvUL8-139" style="edgeStyle=orthogonalEdgeStyle;rounded=0;orthogonalLoop=1;jettySize=auto;html=1;exitX=0.5;exitY=0;exitDx=0;exitDy=0;entryX=0.5;entryY=1;entryDx=0;entryDy=0;" parent="1" source="0f4xCiVm6X6gQx0xvUL8-100" target="0f4xCiVm6X6gQx0xvUL8-107" edge="1">
          <mxGeometry relative="1" as="geometry" />
        </mxCell>
        <mxCell id="0f4xCiVm6X6gQx0xvUL8-100" value="ERROR_APP" style="ellipse;whiteSpace=wrap;html=1;fillColor=#fff2cc;strokeColor=#d6b656;" parent="1" vertex="1">
          <mxGeometry x="100" y="260" width="110" height="60" as="geometry" />
        </mxCell>
        <mxCell id="0f4xCiVm6X6gQx0xvUL8-141" style="edgeStyle=orthogonalEdgeStyle;rounded=0;orthogonalLoop=1;jettySize=auto;html=1;exitX=0;exitY=0.5;exitDx=0;exitDy=0;entryX=1;entryY=0.5;entryDx=0;entryDy=0;curved=1;" parent="1" source="0f4xCiVm6X6gQx0xvUL8-102" target="0f4xCiVm6X6gQx0xvUL8-100" edge="1">
          <mxGeometry relative="1" as="geometry" />
        </mxCell>
        <mxCell id="0f4xCiVm6X6gQx0xvUL8-102" value="ERROR_APP" style="rounded=1;whiteSpace=wrap;html=1;fillColor=#f8cecc;strokeColor=#b85450;shadow=1;" parent="1" vertex="1">
          <mxGeometry x="380" y="330" width="100" height="40" as="geometry" />
        </mxCell>
        <mxCell id="0f4xCiVm6X6gQx0xvUL8-107" value="SCREEN_ERROR" style="rounded=0;whiteSpace=wrap;html=1;fillColor=#e1d5e7;strokeColor=#9673a6;" parent="1" vertex="1">
          <mxGeometry x="95" y="70" width="120" height="60" as="geometry" />
        </mxCell>
        <mxCell id="0f4xCiVm6X6gQx0xvUL8-111" style="edgeStyle=orthogonalEdgeStyle;rounded=0;orthogonalLoop=1;jettySize=auto;html=1;exitX=0.5;exitY=0;exitDx=0;exitDy=0;entryX=0.5;entryY=1;entryDx=0;entryDy=0;" parent="1" source="0f4xCiVm6X6gQx0xvUL8-109" target="0f4xCiVm6X6gQx0xvUL8-110" edge="1">
          <mxGeometry relative="1" as="geometry" />
        </mxCell>
        <mxCell id="0f4xCiVm6X6gQx0xvUL8-109" value="FACTORY" style="ellipse;whiteSpace=wrap;html=1;fillColor=#fff2cc;strokeColor=#d6b656;" parent="1" vertex="1">
          <mxGeometry x="970" y="620" width="110" height="60" as="geometry" />
        </mxCell>
        <mxCell id="0f4xCiVm6X6gQx0xvUL8-247" style="edgeStyle=orthogonalEdgeStyle;rounded=0;orthogonalLoop=1;jettySize=auto;html=1;exitX=0.5;exitY=0;exitDx=0;exitDy=0;entryX=0.388;entryY=1.025;entryDx=0;entryDy=0;entryPerimeter=0;" parent="1" source="0f4xCiVm6X6gQx0xvUL8-110" target="0f4xCiVm6X6gQx0xvUL8-246" edge="1">
          <mxGeometry relative="1" as="geometry" />
        </mxCell>
        <mxCell id="0f4xCiVm6X6gQx0xvUL8-110" value="SCREEN FACTORY" style="rounded=0;whiteSpace=wrap;html=1;fillColor=#e1d5e7;strokeColor=#9673a6;" parent="1" vertex="1">
          <mxGeometry x="965" y="460" width="120" height="60" as="geometry" />
        </mxCell>
        <mxCell id="0f4xCiVm6X6gQx0xvUL8-117" style="edgeStyle=orthogonalEdgeStyle;rounded=0;orthogonalLoop=1;jettySize=auto;html=1;exitX=0;exitY=0.5;exitDx=0;exitDy=0;" parent="1" source="0f4xCiVm6X6gQx0xvUL8-112" target="0f4xCiVm6X6gQx0xvUL8-115" edge="1">
          <mxGeometry relative="1" as="geometry" />
        </mxCell>
        <mxCell id="0f4xCiVm6X6gQx0xvUL8-123" value="NO OK" style="edgeLabel;html=1;align=center;verticalAlign=middle;resizable=0;points=[];" parent="0f4xCiVm6X6gQx0xvUL8-117" vertex="1" connectable="0">
          <mxGeometry x="0.1538" y="-4" relative="1" as="geometry">
            <mxPoint x="5" y="4" as="offset" />
          </mxGeometry>
        </mxCell>
        <mxCell id="0f4xCiVm6X6gQx0xvUL8-121" style="edgeStyle=orthogonalEdgeStyle;rounded=0;orthogonalLoop=1;jettySize=auto;html=1;exitX=1;exitY=0.5;exitDx=0;exitDy=0;entryX=0;entryY=0.5;entryDx=0;entryDy=0;" parent="1" source="0f4xCiVm6X6gQx0xvUL8-112" target="0f4xCiVm6X6gQx0xvUL8-120" edge="1">
          <mxGeometry relative="1" as="geometry" />
        </mxCell>
        <mxCell id="0f4xCiVm6X6gQx0xvUL8-122" style="edgeStyle=orthogonalEdgeStyle;rounded=0;orthogonalLoop=1;jettySize=auto;html=1;exitX=0.5;exitY=1;exitDx=0;exitDy=0;entryX=0.5;entryY=0;entryDx=0;entryDy=0;" parent="1" source="0f4xCiVm6X6gQx0xvUL8-112" target="0f4xCiVm6X6gQx0xvUL8-92" edge="1">
          <mxGeometry relative="1" as="geometry" />
        </mxCell>
        <mxCell id="0f4xCiVm6X6gQx0xvUL8-124" value="OK" style="edgeLabel;html=1;align=center;verticalAlign=middle;resizable=0;points=[];" parent="0f4xCiVm6X6gQx0xvUL8-122" vertex="1" connectable="0">
          <mxGeometry x="0.2667" y="1" relative="1" as="geometry">
            <mxPoint as="offset" />
          </mxGeometry>
        </mxCell>
        <mxCell id="0f4xCiVm6X6gQx0xvUL8-126" style="edgeStyle=orthogonalEdgeStyle;rounded=0;orthogonalLoop=1;jettySize=auto;html=1;exitX=0.5;exitY=1;exitDx=0;exitDy=0;entryX=0.5;entryY=0;entryDx=0;entryDy=0;" parent="1" source="0f4xCiVm6X6gQx0xvUL8-112" target="0f4xCiVm6X6gQx0xvUL8-33" edge="1">
          <mxGeometry relative="1" as="geometry" />
        </mxCell>
        <mxCell id="0f4xCiVm6X6gQx0xvUL8-127" value="OK" style="edgeLabel;html=1;align=center;verticalAlign=middle;resizable=0;points=[];" parent="0f4xCiVm6X6gQx0xvUL8-126" vertex="1" connectable="0">
          <mxGeometry x="-0.071" y="-3" relative="1" as="geometry">
            <mxPoint as="offset" />
          </mxGeometry>
        </mxCell>
        <mxCell id="0f4xCiVm6X6gQx0xvUL8-112" value="INIT_SCREEN" style="shape=process;whiteSpace=wrap;html=1;backgroundOutline=1;fillColor=#dae8fc;strokeColor=#6c8ebf;" parent="1" vertex="1">
          <mxGeometry x="620" y="460" width="120" height="60" as="geometry" />
        </mxCell>
        <mxCell id="0f4xCiVm6X6gQx0xvUL8-119" style="edgeStyle=orthogonalEdgeStyle;rounded=0;orthogonalLoop=1;jettySize=auto;html=1;exitX=0;exitY=0.5;exitDx=0;exitDy=0;curved=1;entryX=0.5;entryY=1;entryDx=0;entryDy=0;" parent="1" source="0f4xCiVm6X6gQx0xvUL8-115" target="0f4xCiVm6X6gQx0xvUL8-100" edge="1">
          <mxGeometry relative="1" as="geometry">
            <mxPoint x="100" y="370" as="targetPoint" />
          </mxGeometry>
        </mxCell>
        <mxCell id="0f4xCiVm6X6gQx0xvUL8-115" value="ERROR_APP" style="rounded=1;whiteSpace=wrap;html=1;fillColor=#f8cecc;strokeColor=#b85450;shadow=1;" parent="1" vertex="1">
          <mxGeometry x="390" y="470" width="100" height="40" as="geometry" />
        </mxCell>
        <mxCell id="0f4xCiVm6X6gQx0xvUL8-120" value="MAIN SCREEN" style="rounded=0;whiteSpace=wrap;html=1;fillColor=#e1d5e7;strokeColor=#9673a6;" parent="1" vertex="1">
          <mxGeometry x="790" y="460" width="120" height="60" as="geometry" />
        </mxCell>
        <mxCell id="0f4xCiVm6X6gQx0xvUL8-143" style="edgeStyle=orthogonalEdgeStyle;rounded=0;orthogonalLoop=1;jettySize=auto;html=1;exitX=1;exitY=0.5;exitDx=0;exitDy=0;" parent="1" source="0f4xCiVm6X6gQx0xvUL8-134" target="0f4xCiVm6X6gQx0xvUL8-142" edge="1">
          <mxGeometry relative="1" as="geometry" />
        </mxCell>
        <mxCell id="0f4xCiVm6X6gQx0xvUL8-134" value="GESTION_PROGRAMAS&lt;br&gt;CADA SEGUNDO" style="shape=process;whiteSpace=wrap;html=1;backgroundOutline=1;fillColor=#dae8fc;strokeColor=#6c8ebf;" parent="1" vertex="1">
          <mxGeometry x="585" y="1510" width="190" height="60" as="geometry" />
        </mxCell>
        <mxCell id="0f4xCiVm6X6gQx0xvUL8-145" style="edgeStyle=orthogonalEdgeStyle;rounded=0;orthogonalLoop=1;jettySize=auto;html=1;exitX=0.5;exitY=1;exitDx=0;exitDy=0;entryX=0.5;entryY=0;entryDx=0;entryDy=0;" parent="1" source="0f4xCiVm6X6gQx0xvUL8-142" target="0f4xCiVm6X6gQx0xvUL8-144" edge="1">
          <mxGeometry relative="1" as="geometry" />
        </mxCell>
        <mxCell id="0f4xCiVm6X6gQx0xvUL8-142" value="CHECK_PROGRAMS" style="ellipse;whiteSpace=wrap;html=1;fillColor=#fff2cc;strokeColor=#d6b656;" parent="1" vertex="1">
          <mxGeometry x="1050" y="1510" width="130" height="60" as="geometry" />
        </mxCell>
        <mxCell id="0f4xCiVm6X6gQx0xvUL8-162" style="edgeStyle=orthogonalEdgeStyle;rounded=0;orthogonalLoop=1;jettySize=auto;html=1;exitX=0.5;exitY=1;exitDx=0;exitDy=0;entryX=0.5;entryY=0;entryDx=0;entryDy=0;" parent="1" source="0f4xCiVm6X6gQx0xvUL8-163" edge="1">
          <mxGeometry relative="1" as="geometry">
            <mxPoint x="1115" y="1910" as="targetPoint" />
          </mxGeometry>
        </mxCell>
        <mxCell id="JKR6g9pF1SF6TcLHYXkg-2" style="edgeStyle=none;curved=1;rounded=0;orthogonalLoop=1;jettySize=auto;html=1;exitX=1;exitY=0.5;exitDx=0;exitDy=0;fontSize=12;startSize=8;endSize=8;" parent="1" source="0f4xCiVm6X6gQx0xvUL8-144" target="JKR6g9pF1SF6TcLHYXkg-1" edge="1">
          <mxGeometry relative="1" as="geometry" />
        </mxCell>
        <mxCell id="0f4xCiVm6X6gQx0xvUL8-144" value="CALCULAR&lt;br&gt;PROGRAMA&lt;br&gt;ACTIVO" style="shape=process;whiteSpace=wrap;html=1;backgroundOutline=1;fillColor=#dae8fc;strokeColor=#6c8ebf;" parent="1" vertex="1">
          <mxGeometry x="1055" y="1660" width="120" height="60" as="geometry" />
        </mxCell>
        <mxCell id="0f4xCiVm6X6gQx0xvUL8-146" value="NORMAL_SIN_PROGRAMACION" style="ellipse;whiteSpace=wrap;html=1;fillColor=#fff2cc;strokeColor=#d6b656;" parent="1" vertex="1">
          <mxGeometry x="1550" y="1660" width="220" height="60" as="geometry" />
        </mxCell>
        <mxCell id="0f4xCiVm6X6gQx0xvUL8-166" style="edgeStyle=orthogonalEdgeStyle;rounded=0;orthogonalLoop=1;jettySize=auto;html=1;exitX=0.5;exitY=1;exitDx=0;exitDy=0;entryX=0.5;entryY=0;entryDx=0;entryDy=0;" parent="1" source="0f4xCiVm6X6gQx0xvUL8-163" target="0f4xCiVm6X6gQx0xvUL8-165" edge="1">
          <mxGeometry relative="1" as="geometry" />
        </mxCell>
        <mxCell id="0f4xCiVm6X6gQx0xvUL8-168" style="edgeStyle=orthogonalEdgeStyle;rounded=0;orthogonalLoop=1;jettySize=auto;html=1;exitX=0.5;exitY=1;exitDx=0;exitDy=0;entryX=0.5;entryY=0;entryDx=0;entryDy=0;" parent="1" source="0f4xCiVm6X6gQx0xvUL8-165" target="0f4xCiVm6X6gQx0xvUL8-167" edge="1">
          <mxGeometry relative="1" as="geometry" />
        </mxCell>
        <mxCell id="0f4xCiVm6X6gQx0xvUL8-193" style="edgeStyle=orthogonalEdgeStyle;rounded=0;orthogonalLoop=1;jettySize=auto;html=1;exitX=0;exitY=0.5;exitDx=0;exitDy=0;entryX=1;entryY=0.5;entryDx=0;entryDy=0;" parent="1" source="0f4xCiVm6X6gQx0xvUL8-165" target="0f4xCiVm6X6gQx0xvUL8-192" edge="1">
          <mxGeometry relative="1" as="geometry" />
        </mxCell>
        <mxCell id="zTgI0EQMeFXNsmu36gCH-2" style="edgeStyle=none;curved=1;rounded=0;orthogonalLoop=1;jettySize=auto;html=1;exitX=1;exitY=0.5;exitDx=0;exitDy=0;entryX=0;entryY=0.5;entryDx=0;entryDy=0;fontSize=12;startSize=8;endSize=8;" parent="1" source="0f4xCiVm6X6gQx0xvUL8-165" target="zTgI0EQMeFXNsmu36gCH-1" edge="1">
          <mxGeometry relative="1" as="geometry" />
        </mxCell>
        <mxCell id="0f4xCiVm6X6gQx0xvUL8-165" value="START_SCHEDULE" style="rounded=0;whiteSpace=wrap;html=1;shadow=1;fillColor=#dae8fc;strokeColor=#6c8ebf;" parent="1" vertex="1">
          <mxGeometry x="1055" y="2020" width="120" height="60" as="geometry" />
        </mxCell>
        <mxCell id="0f4xCiVm6X6gQx0xvUL8-171" style="edgeStyle=orthogonalEdgeStyle;rounded=0;orthogonalLoop=1;jettySize=auto;html=1;exitX=0.5;exitY=1;exitDx=0;exitDy=0;entryX=0.5;entryY=0;entryDx=0;entryDy=0;" parent="1" source="0f4xCiVm6X6gQx0xvUL8-167" target="0f4xCiVm6X6gQx0xvUL8-170" edge="1">
          <mxGeometry relative="1" as="geometry" />
        </mxCell>
        <mxCell id="0f4xCiVm6X6gQx0xvUL8-167" value="TEMPORIZADOR&lt;br&gt;INTERMEDIO" style="shape=process;whiteSpace=wrap;html=1;backgroundOutline=1;shadow=1;fillColor=#dae8fc;strokeColor=#6c8ebf;" parent="1" vertex="1">
          <mxGeometry x="1055" y="2120" width="120" height="60" as="geometry" />
        </mxCell>
        <mxCell id="0f4xCiVm6X6gQx0xvUL8-173" style="edgeStyle=orthogonalEdgeStyle;rounded=0;orthogonalLoop=1;jettySize=auto;html=1;exitX=1;exitY=0.5;exitDx=0;exitDy=0;" parent="1" source="0f4xCiVm6X6gQx0xvUL8-170" edge="1">
          <mxGeometry relative="1" as="geometry">
            <mxPoint x="1050" y="2150" as="targetPoint" />
            <Array as="points">
              <mxPoint x="1000" y="2268" />
              <mxPoint x="1000" y="2150" />
            </Array>
          </mxGeometry>
        </mxCell>
        <mxCell id="0f4xCiVm6X6gQx0xvUL8-212" style="edgeStyle=orthogonalEdgeStyle;rounded=0;orthogonalLoop=1;jettySize=auto;html=1;exitX=0;exitY=0.5;exitDx=0;exitDy=0;entryX=1;entryY=0.5;entryDx=0;entryDy=0;" parent="1" source="0f4xCiVm6X6gQx0xvUL8-170" target="0f4xCiVm6X6gQx0xvUL8-142" edge="1">
          <mxGeometry relative="1" as="geometry">
            <Array as="points">
              <mxPoint x="1260" y="2188" />
              <mxPoint x="1260" y="1540" />
            </Array>
          </mxGeometry>
        </mxCell>
        <mxCell id="0f4xCiVm6X6gQx0xvUL8-170" value="END_SCHEDULE" style="rhombus;whiteSpace=wrap;html=1;shadow=1;fillColor=#dae8fc;strokeColor=#6c8ebf;" parent="1" vertex="1">
          <mxGeometry x="1040" y="2228" width="150" height="80" as="geometry" />
        </mxCell>
        <mxCell id="0f4xCiVm6X6gQx0xvUL8-172" value="SI" style="text;html=1;align=center;verticalAlign=middle;resizable=0;points=[];autosize=1;strokeColor=none;fillColor=none;" parent="1" vertex="1">
          <mxGeometry x="1120" y="1940" width="30" height="30" as="geometry" />
        </mxCell>
        <mxCell id="0f4xCiVm6X6gQx0xvUL8-174" value="NO" style="text;html=1;align=center;verticalAlign=middle;resizable=0;points=[];autosize=1;strokeColor=none;fillColor=none;" parent="1" vertex="1">
          <mxGeometry x="950" y="2110" width="40" height="30" as="geometry" />
        </mxCell>
        <mxCell id="0f4xCiVm6X6gQx0xvUL8-177" value="SI" style="text;html=1;align=center;verticalAlign=middle;resizable=0;points=[];autosize=1;strokeColor=none;fillColor=none;" parent="1" vertex="1">
          <mxGeometry x="1220" y="2240" width="30" height="30" as="geometry" />
        </mxCell>
        <mxCell id="0f4xCiVm6X6gQx0xvUL8-178" style="edgeStyle=orthogonalEdgeStyle;rounded=0;orthogonalLoop=1;jettySize=auto;html=1;exitX=0.5;exitY=1;exitDx=0;exitDy=0;entryX=0.5;entryY=0;entryDx=0;entryDy=0;" parent="1" source="0f4xCiVm6X6gQx0xvUL8-179" target="0f4xCiVm6X6gQx0xvUL8-181" edge="1">
          <mxGeometry relative="1" as="geometry" />
        </mxCell>
        <mxCell id="0f4xCiVm6X6gQx0xvUL8-179" value="AUTO" style="ellipse;whiteSpace=wrap;html=1;fillColor=#fff2cc;strokeColor=#d6b656;" parent="1" vertex="1">
          <mxGeometry x="1915" y="2021" width="130" height="60" as="geometry" />
        </mxCell>
        <mxCell id="0f4xCiVm6X6gQx0xvUL8-180" style="edgeStyle=orthogonalEdgeStyle;rounded=0;orthogonalLoop=1;jettySize=auto;html=1;exitX=1;exitY=0.5;exitDx=0;exitDy=0;entryX=0;entryY=0.5;entryDx=0;entryDy=0;" parent="1" source="0f4xCiVm6X6gQx0xvUL8-181" target="0f4xCiVm6X6gQx0xvUL8-182" edge="1">
          <mxGeometry relative="1" as="geometry" />
        </mxCell>
        <mxCell id="0f4xCiVm6X6gQx0xvUL8-181" value="MODIFICACION&lt;br&gt;MANUAL&lt;br&gt;UMBRAL&lt;br&gt;TEMPERATURA" style="rounded=1;whiteSpace=wrap;html=1;shadow=1;fillColor=#dae8fc;strokeColor=#6c8ebf;" parent="1" vertex="1">
          <mxGeometry x="1920" y="2149" width="120" height="60" as="geometry" />
        </mxCell>
        <mxCell id="0f4xCiVm6X6gQx0xvUL8-182" value="AUTOMAN" style="ellipse;whiteSpace=wrap;html=1;fillColor=#fff2cc;strokeColor=#d6b656;" parent="1" vertex="1">
          <mxGeometry x="2145" y="2149" width="130" height="60" as="geometry" />
        </mxCell>
        <mxCell id="0f4xCiVm6X6gQx0xvUL8-183" style="edgeStyle=orthogonalEdgeStyle;rounded=0;orthogonalLoop=1;jettySize=auto;html=1;exitX=1;exitY=0;exitDx=0;exitDy=0;entryX=1;entryY=1;entryDx=0;entryDy=0;curved=1;" parent="1" source="0f4xCiVm6X6gQx0xvUL8-179" target="0f4xCiVm6X6gQx0xvUL8-179" edge="1">
          <mxGeometry relative="1" as="geometry">
            <Array as="points">
              <mxPoint x="2026" y="1999" />
              <mxPoint x="2105" y="1999" />
              <mxPoint x="2105" y="2099" />
              <mxPoint x="2026" y="2099" />
            </Array>
          </mxGeometry>
        </mxCell>
        <mxCell id="0f4xCiVm6X6gQx0xvUL8-184" value="ERROR WIFI&lt;br&gt;ERROR_NTP&lt;br&gt;ERROR MQTT" style="text;html=1;align=center;verticalAlign=middle;resizable=0;points=[];autosize=1;strokeColor=none;fillColor=none;" parent="1" vertex="1">
          <mxGeometry x="2055" y="1982" width="100" height="60" as="geometry" />
        </mxCell>
        <mxCell id="0f4xCiVm6X6gQx0xvUL8-185" value="ERROR WIFI&lt;br&gt;ERROR_NTP&lt;br&gt;ERROR MQTT" style="text;html=1;align=center;verticalAlign=middle;resizable=0;points=[];autosize=1;strokeColor=none;fillColor=none;" parent="1" vertex="1">
          <mxGeometry x="2305" y="2089" width="100" height="60" as="geometry" />
        </mxCell>
        <mxCell id="0f4xCiVm6X6gQx0xvUL8-186" style="edgeStyle=orthogonalEdgeStyle;rounded=0;orthogonalLoop=1;jettySize=auto;html=1;exitX=1;exitY=0;exitDx=0;exitDy=0;entryX=1;entryY=1;entryDx=0;entryDy=0;curved=1;" parent="1" source="0f4xCiVm6X6gQx0xvUL8-182" target="0f4xCiVm6X6gQx0xvUL8-182" edge="1">
          <mxGeometry relative="1" as="geometry">
            <Array as="points">
              <mxPoint x="2256" y="2129" />
              <mxPoint x="2335" y="2129" />
              <mxPoint x="2335" y="2229" />
              <mxPoint x="2256" y="2229" />
            </Array>
          </mxGeometry>
        </mxCell>
        <mxCell id="0f4xCiVm6X6gQx0xvUL8-187" value="" style="edgeStyle=orthogonalEdgeStyle;rounded=0;orthogonalLoop=1;jettySize=auto;html=1;exitX=0.5;exitY=1;exitDx=0;exitDy=0;entryX=0.5;entryY=0;entryDx=0;entryDy=0;" parent="1" source="0f4xCiVm6X6gQx0xvUL8-144" target="0f4xCiVm6X6gQx0xvUL8-163" edge="1">
          <mxGeometry relative="1" as="geometry">
            <mxPoint x="1115" y="1720" as="sourcePoint" />
            <mxPoint x="1115" y="1830" as="targetPoint" />
          </mxGeometry>
        </mxCell>
        <mxCell id="JKR6g9pF1SF6TcLHYXkg-6" style="edgeStyle=none;curved=1;rounded=0;orthogonalLoop=1;jettySize=auto;html=1;exitX=1;exitY=0.5;exitDx=0;exitDy=0;fontSize=12;startSize=8;endSize=8;" parent="1" source="0f4xCiVm6X6gQx0xvUL8-163" target="JKR6g9pF1SF6TcLHYXkg-5" edge="1">
          <mxGeometry relative="1" as="geometry" />
        </mxCell>
        <mxCell id="0f4xCiVm6X6gQx0xvUL8-163" value="PROGRAMA&lt;br&gt;ACTIVO?" style="rhombus;whiteSpace=wrap;html=1;fillColor=#dae8fc;strokeColor=#6c8ebf;shadow=1;" parent="1" vertex="1">
          <mxGeometry x="1040" y="1860" width="150" height="80" as="geometry" />
        </mxCell>
        <mxCell id="0f4xCiVm6X6gQx0xvUL8-194" style="edgeStyle=orthogonalEdgeStyle;rounded=0;orthogonalLoop=1;jettySize=auto;html=1;exitX=0.5;exitY=0;exitDx=0;exitDy=0;entryX=0;entryY=0.5;entryDx=0;entryDy=0;" parent="1" source="0f4xCiVm6X6gQx0xvUL8-192" target="0f4xCiVm6X6gQx0xvUL8-142" edge="1">
          <mxGeometry relative="1" as="geometry">
            <Array as="points">
              <mxPoint x="765" y="1890" />
              <mxPoint x="910" y="1890" />
              <mxPoint x="910" y="1540" />
            </Array>
          </mxGeometry>
        </mxCell>
        <mxCell id="0f4xCiVm6X6gQx0xvUL8-192" value="00:00?" style="rhombus;whiteSpace=wrap;html=1;shadow=1;fillColor=#dae8fc;strokeColor=#6c8ebf;" parent="1" vertex="1">
          <mxGeometry x="690" y="1930" width="150" height="80" as="geometry" />
        </mxCell>
        <mxCell id="0f4xCiVm6X6gQx0xvUL8-195" value="SI" style="text;html=1;align=center;verticalAlign=middle;resizable=0;points=[];autosize=1;strokeColor=none;fillColor=none;" parent="1" vertex="1">
          <mxGeometry x="765" y="1848" width="30" height="30" as="geometry" />
        </mxCell>
        <mxCell id="0f4xCiVm6X6gQx0xvUL8-199" style="edgeStyle=orthogonalEdgeStyle;rounded=0;orthogonalLoop=1;jettySize=auto;html=1;exitX=1;exitY=0.5;exitDx=0;exitDy=0;entryX=0;entryY=0.5;entryDx=0;entryDy=0;" parent="1" source="0f4xCiVm6X6gQx0xvUL8-196" target="0f4xCiVm6X6gQx0xvUL8-198" edge="1">
          <mxGeometry relative="1" as="geometry" />
        </mxCell>
        <mxCell id="0f4xCiVm6X6gQx0xvUL8-203" style="edgeStyle=orthogonalEdgeStyle;rounded=0;orthogonalLoop=1;jettySize=auto;html=1;exitX=0.5;exitY=0;exitDx=0;exitDy=0;" parent="1" source="0f4xCiVm6X6gQx0xvUL8-196" edge="1">
          <mxGeometry relative="1" as="geometry">
            <mxPoint x="740" y="950" as="targetPoint" />
            <Array as="points">
              <mxPoint x="1230" y="1080" />
              <mxPoint x="1230" y="950" />
              <mxPoint x="740" y="950" />
            </Array>
          </mxGeometry>
        </mxCell>
        <mxCell id="0f4xCiVm6X6gQx0xvUL8-204" value="RETRY" style="edgeLabel;html=1;align=center;verticalAlign=middle;resizable=0;points=[];" parent="0f4xCiVm6X6gQx0xvUL8-203" vertex="1" connectable="0">
          <mxGeometry x="-0.6949" y="-4" relative="1" as="geometry">
            <mxPoint as="offset" />
          </mxGeometry>
        </mxCell>
        <mxCell id="0f4xCiVm6X6gQx0xvUL8-196" value="RECOVERY_NTP" style="ellipse;whiteSpace=wrap;html=1;fillColor=#fff2cc;strokeColor=#d6b656;" parent="1" vertex="1">
          <mxGeometry x="1160" y="1080" width="130" height="60" as="geometry" />
        </mxCell>
        <mxCell id="0f4xCiVm6X6gQx0xvUL8-205" style="edgeStyle=orthogonalEdgeStyle;rounded=0;orthogonalLoop=1;jettySize=auto;html=1;exitX=0.5;exitY=1;exitDx=0;exitDy=0;entryX=0.5;entryY=0;entryDx=0;entryDy=0;" parent="1" source="0f4xCiVm6X6gQx0xvUL8-198" target="0f4xCiVm6X6gQx0xvUL8-142" edge="1">
          <mxGeometry relative="1" as="geometry" />
        </mxCell>
        <mxCell id="0f4xCiVm6X6gQx0xvUL8-206" value="TIME VALID" style="edgeLabel;html=1;align=center;verticalAlign=middle;resizable=0;points=[];" parent="0f4xCiVm6X6gQx0xvUL8-205" vertex="1" connectable="0">
          <mxGeometry x="-0.6579" relative="1" as="geometry">
            <mxPoint as="offset" />
          </mxGeometry>
        </mxCell>
        <mxCell id="0f4xCiVm6X6gQx0xvUL8-207" value="SI" style="edgeLabel;html=1;align=center;verticalAlign=middle;resizable=0;points=[];" parent="0f4xCiVm6X6gQx0xvUL8-205" vertex="1" connectable="0">
          <mxGeometry x="-0.8954" y="1" relative="1" as="geometry">
            <mxPoint as="offset" />
          </mxGeometry>
        </mxCell>
        <mxCell id="0f4xCiVm6X6gQx0xvUL8-210" style="edgeStyle=orthogonalEdgeStyle;rounded=0;orthogonalLoop=1;jettySize=auto;html=1;exitX=1;exitY=0.5;exitDx=0;exitDy=0;entryX=0.5;entryY=1;entryDx=0;entryDy=0;" parent="1" source="0f4xCiVm6X6gQx0xvUL8-198" target="0f4xCiVm6X6gQx0xvUL8-208" edge="1">
          <mxGeometry relative="1" as="geometry">
            <mxPoint x="240" y="1200" as="targetPoint" />
            <Array as="points">
              <mxPoint x="1560" y="1110" />
              <mxPoint x="1560" y="1300" />
              <mxPoint x="205" y="1300" />
            </Array>
          </mxGeometry>
        </mxCell>
        <mxCell id="0f4xCiVm6X6gQx0xvUL8-198" value="&amp;gt; 6H" style="rhombus;whiteSpace=wrap;html=1;shadow=1;fillColor=#dae8fc;strokeColor=#6c8ebf;" parent="1" vertex="1">
          <mxGeometry x="1390" y="1070" width="150" height="80" as="geometry" />
        </mxCell>
        <mxCell id="0f4xCiVm6X6gQx0xvUL8-208" value="ERROR_APP" style="ellipse;whiteSpace=wrap;html=1;fillColor=#fff2cc;strokeColor=#d6b656;" parent="1" vertex="1">
          <mxGeometry x="140" y="1110" width="130" height="60" as="geometry" />
        </mxCell>
        <mxCell id="0f4xCiVm6X6gQx0xvUL8-211" value="NO" style="text;html=1;align=center;verticalAlign=middle;resizable=0;points=[];autosize=1;strokeColor=none;fillColor=none;" parent="1" vertex="1">
          <mxGeometry x="1560" y="1155" width="40" height="30" as="geometry" />
        </mxCell>
        <mxCell id="0f4xCiVm6X6gQx0xvUL8-224" value="SI" style="text;html=1;align=center;verticalAlign=middle;resizable=0;points=[];autosize=1;strokeColor=none;fillColor=none;" parent="1" vertex="1">
          <mxGeometry x="675" y="1428" width="30" height="30" as="geometry" />
        </mxCell>
        <mxCell id="0f4xCiVm6X6gQx0xvUL8-226" value="NO" style="text;html=1;align=center;verticalAlign=middle;resizable=0;points=[];autosize=1;strokeColor=none;fillColor=none;" parent="1" vertex="1">
          <mxGeometry x="1200" y="1868" width="40" height="30" as="geometry" />
        </mxCell>
        <mxCell id="0f4xCiVm6X6gQx0xvUL8-231" style="edgeStyle=orthogonalEdgeStyle;rounded=0;orthogonalLoop=1;jettySize=auto;html=1;exitX=0.5;exitY=1;exitDx=0;exitDy=0;entryX=0.75;entryY=0;entryDx=0;entryDy=0;" parent="1" source="0f4xCiVm6X6gQx0xvUL8-228" target="0f4xCiVm6X6gQx0xvUL8-165" edge="1">
          <mxGeometry relative="1" as="geometry" />
        </mxCell>
        <mxCell id="0f4xCiVm6X6gQx0xvUL8-232" style="edgeStyle=orthogonalEdgeStyle;rounded=0;orthogonalLoop=1;jettySize=auto;html=1;exitX=1;exitY=0.5;exitDx=0;exitDy=0;entryX=0.5;entryY=0;entryDx=0;entryDy=0;" parent="1" source="0f4xCiVm6X6gQx0xvUL8-228" target="0f4xCiVm6X6gQx0xvUL8-179" edge="1">
          <mxGeometry relative="1" as="geometry" />
        </mxCell>
        <mxCell id="0f4xCiVm6X6gQx0xvUL8-228" value="NEXT INTERVAL" style="rounded=0;whiteSpace=wrap;html=1;shadow=1;fillColor=#dae8fc;strokeColor=#6c8ebf;" parent="1" vertex="1">
          <mxGeometry x="1545" y="1870" width="120" height="60" as="geometry" />
        </mxCell>
        <mxCell id="0f4xCiVm6X6gQx0xvUL8-234" value="&amp;gt; 0 PROGRAMAS" style="text;html=1;align=center;verticalAlign=middle;resizable=0;points=[];autosize=1;strokeColor=none;fillColor=none;" parent="1" vertex="1">
          <mxGeometry x="1110" y="1740" width="120" height="30" as="geometry" />
        </mxCell>
        <mxCell id="0f4xCiVm6X6gQx0xvUL8-236" style="edgeStyle=orthogonalEdgeStyle;rounded=0;orthogonalLoop=1;jettySize=auto;html=1;exitX=0;exitY=0.5;exitDx=0;exitDy=0;entryX=0.5;entryY=0;entryDx=0;entryDy=0;" parent="1" source="0f4xCiVm6X6gQx0xvUL8-235" target="0f4xCiVm6X6gQx0xvUL8-142" edge="1">
          <mxGeometry relative="1" as="geometry" />
        </mxCell>
        <mxCell id="0f4xCiVm6X6gQx0xvUL8-235" value="NUEVO PROGRAMA&lt;br&gt;MODIFICAR PROGRAMA&lt;br&gt;BORRAR PROGRAMA" style="rounded=0;whiteSpace=wrap;html=1;shadow=1;fillColor=#dae8fc;strokeColor=#6c8ebf;" parent="1" vertex="1">
          <mxGeometry x="1650" y="1413" width="170" height="60" as="geometry" />
        </mxCell>
        <mxCell id="0f4xCiVm6X6gQx0xvUL8-246" value="&lt;h1&gt;Factory&lt;/h1&gt;&lt;p&gt;Enseñamos texto configura dispositivo y pasamos a usarlo como termostato&lt;span style=&quot;text-align: center;&quot;&gt;.&lt;/span&gt;&lt;br&gt;&lt;/p&gt;" style="text;html=1;strokeColor=#d79b00;fillColor=#ffe6cc;spacing=5;spacingTop=-20;whiteSpace=wrap;overflow=hidden;rounded=1;fillStyle=solid;glass=0;shadow=1;" parent="1" vertex="1">
          <mxGeometry x="930" y="310" width="240" height="120" as="geometry" />
        </mxCell>
        <mxCell id="0f4xCiVm6X6gQx0xvUL8-248" value="OK" style="text;html=1;align=center;verticalAlign=middle;resizable=0;points=[];autosize=1;strokeColor=#B20000;fillColor=#e51400;fontColor=#ffffff;fillStyle=solid;rounded=1;arcSize=50;" parent="1" vertex="1">
          <mxGeometry x="725" y="150" width="40" height="30" as="geometry" />
        </mxCell>
        <mxCell id="0f4xCiVm6X6gQx0xvUL8-249" value="OK" style="text;html=1;align=center;verticalAlign=middle;resizable=0;points=[];autosize=1;strokeColor=#B20000;fillColor=#e51400;fontColor=#ffffff;fillStyle=solid;rounded=1;arcSize=50;" parent="1" vertex="1">
          <mxGeometry x="720" y="310" width="40" height="30" as="geometry" />
        </mxCell>
        <mxCell id="0f4xCiVm6X6gQx0xvUL8-250" value="OK" style="text;html=1;align=center;verticalAlign=middle;resizable=0;points=[];autosize=1;strokeColor=#B20000;fillColor=#e51400;fontColor=#ffffff;fillStyle=solid;rounded=1;arcSize=50;" parent="1" vertex="1">
          <mxGeometry x="460" y="150" width="40" height="30" as="geometry" />
        </mxCell>
        <mxCell id="0f4xCiVm6X6gQx0xvUL8-251" value="OK" style="text;html=1;align=center;verticalAlign=middle;resizable=0;points=[];autosize=1;strokeColor=#B20000;fillColor=#e51400;fontColor=#ffffff;fillStyle=solid;rounded=1;arcSize=50;" parent="1" vertex="1">
          <mxGeometry x="190" y="60" width="40" height="30" as="geometry" />
        </mxCell>
        <mxCell id="0f4xCiVm6X6gQx0xvUL8-252" value="OK" style="text;html=1;align=center;verticalAlign=middle;resizable=0;points=[];autosize=1;strokeColor=#B20000;fillColor=#e51400;fontColor=#ffffff;fillStyle=solid;rounded=1;arcSize=50;" parent="1" vertex="1">
          <mxGeometry x="880" y="440" width="40" height="30" as="geometry" />
        </mxCell>
        <mxCell id="0f4xCiVm6X6gQx0xvUL8-253" value="OK" style="text;html=1;align=center;verticalAlign=middle;resizable=0;points=[];autosize=1;strokeColor=#B20000;fillColor=#e51400;fontColor=#ffffff;fillStyle=solid;rounded=1;arcSize=50;" parent="1" vertex="1">
          <mxGeometry x="470" y="450" width="40" height="30" as="geometry" />
        </mxCell>
        <mxCell id="0f4xCiVm6X6gQx0xvUL8-254" value="OK" style="text;html=1;align=center;verticalAlign=middle;resizable=0;points=[];autosize=1;strokeColor=#B20000;fillColor=#e51400;fontColor=#ffffff;fillStyle=solid;rounded=1;arcSize=50;" parent="1" vertex="1">
          <mxGeometry x="90" y="250" width="40" height="30" as="geometry" />
        </mxCell>
        <mxCell id="0f4xCiVm6X6gQx0xvUL8-255" value="OK" style="text;html=1;align=center;verticalAlign=middle;resizable=0;points=[];autosize=1;strokeColor=#B20000;fillColor=#e51400;fontColor=#ffffff;fillStyle=solid;rounded=1;arcSize=50;" parent="1" vertex="1">
          <mxGeometry x="735" y="470" width="40" height="30" as="geometry" />
        </mxCell>
        <mxCell id="0f4xCiVm6X6gQx0xvUL8-256" value="OK" style="text;html=1;align=center;verticalAlign=middle;resizable=0;points=[];autosize=1;strokeColor=#B20000;fillColor=#e51400;fontColor=#ffffff;fillStyle=solid;rounded=1;arcSize=50;" parent="1" vertex="1">
          <mxGeometry x="700" y="40" width="40" height="30" as="geometry" />
        </mxCell>
        <mxCell id="zTgI0EQMeFXNsmu36gCH-7" style="edgeStyle=none;curved=1;rounded=0;orthogonalLoop=1;jettySize=auto;html=1;exitX=1;exitY=0.5;exitDx=0;exitDy=0;entryX=0;entryY=0.5;entryDx=0;entryDy=0;fontSize=12;startSize=8;endSize=8;" parent="1" source="zTgI0EQMeFXNsmu36gCH-1" target="zTgI0EQMeFXNsmu36gCH-6" edge="1">
          <mxGeometry relative="1" as="geometry" />
        </mxCell>
        <mxCell id="zTgI0EQMeFXNsmu36gCH-10" style="edgeStyle=none;curved=1;rounded=0;orthogonalLoop=1;jettySize=auto;html=1;exitX=0.5;exitY=1;exitDx=0;exitDy=0;entryX=0.5;entryY=0;entryDx=0;entryDy=0;fontSize=12;startSize=8;endSize=8;" parent="1" source="zTgI0EQMeFXNsmu36gCH-1" target="zTgI0EQMeFXNsmu36gCH-5" edge="1">
          <mxGeometry relative="1" as="geometry" />
        </mxCell>
        <mxCell id="zTgI0EQMeFXNsmu36gCH-1" value="PASO INTERVALO?" style="rhombus;whiteSpace=wrap;html=1;fillColor=#dae8fc;strokeColor=#6c8ebf;shadow=1;" parent="1" vertex="1">
          <mxGeometry x="1530" y="2011" width="150" height="80" as="geometry" />
        </mxCell>
        <mxCell id="zTgI0EQMeFXNsmu36gCH-5" value="AUTO" style="ellipse;whiteSpace=wrap;html=1;fillColor=#fff2cc;strokeColor=#d6b656;" parent="1" vertex="1">
          <mxGeometry x="1540" y="2161" width="130" height="60" as="geometry" />
        </mxCell>
        <mxCell id="zTgI0EQMeFXNsmu36gCH-8" style="edgeStyle=none;curved=1;rounded=0;orthogonalLoop=1;jettySize=auto;html=1;exitX=1;exitY=0.5;exitDx=0;exitDy=0;entryX=0;entryY=0.5;entryDx=0;entryDy=0;fontSize=12;startSize=8;endSize=8;" parent="1" source="zTgI0EQMeFXNsmu36gCH-6" target="0f4xCiVm6X6gQx0xvUL8-179" edge="1">
          <mxGeometry relative="1" as="geometry" />
        </mxCell>
        <mxCell id="zTgI0EQMeFXNsmu36gCH-6" value="ACTIVAR PROGRAMA" style="rounded=0;whiteSpace=wrap;html=1;shadow=1;fillColor=#dae8fc;strokeColor=#6c8ebf;" parent="1" vertex="1">
          <mxGeometry x="1745" y="2021" width="120" height="60" as="geometry" />
        </mxCell>
        <mxCell id="zTgI0EQMeFXNsmu36gCH-9" value="NO" style="text;html=1;align=center;verticalAlign=middle;resizable=0;points=[];autosize=1;strokeColor=none;fillColor=none;fontSize=16;" parent="1" vertex="1">
          <mxGeometry x="1670" y="2019" width="50" height="30" as="geometry" />
        </mxCell>
        <mxCell id="zTgI0EQMeFXNsmu36gCH-11" value="SI" style="text;html=1;align=center;verticalAlign=middle;resizable=0;points=[];autosize=1;strokeColor=none;fillColor=none;fontSize=16;" parent="1" vertex="1">
          <mxGeometry x="1595" y="2099" width="40" height="30" as="geometry" />
        </mxCell>
        <mxCell id="Zdb9aHJPwX9mJ4DxpiSj-13" style="edgeStyle=none;curved=1;rounded=0;orthogonalLoop=1;jettySize=auto;html=1;exitX=0.5;exitY=1;exitDx=0;exitDy=0;entryX=0.5;entryY=0;entryDx=0;entryDy=0;fontSize=12;startSize=8;endSize=8;" parent="1" source="Zdb9aHJPwX9mJ4DxpiSj-7" target="Zdb9aHJPwX9mJ4DxpiSj-12" edge="1">
          <mxGeometry relative="1" as="geometry" />
        </mxCell>
        <mxCell id="Zdb9aHJPwX9mJ4DxpiSj-7" value="NTP_OK" style="rounded=1;whiteSpace=wrap;html=1;fillColor=#f8cecc;strokeColor=#b85450;shadow=1;" parent="1" vertex="1">
          <mxGeometry x="390" y="1155" width="100" height="40" as="geometry" />
        </mxCell>
        <mxCell id="Zdb9aHJPwX9mJ4DxpiSj-12" value="CHECK_PROGRAMS" style="ellipse;whiteSpace=wrap;html=1;fillColor=#fff2cc;strokeColor=#d6b656;" parent="1" vertex="1">
          <mxGeometry x="375" y="1360" width="130" height="60" as="geometry" />
        </mxCell>
        <mxCell id="Zdb9aHJPwX9mJ4DxpiSj-18" style="edgeStyle=orthogonalEdgeStyle;rounded=0;orthogonalLoop=1;jettySize=auto;html=1;exitX=0.5;exitY=1;exitDx=0;exitDy=0;fontSize=12;startSize=8;endSize=8;entryX=0.5;entryY=0;entryDx=0;entryDy=0;" parent="1" source="Zdb9aHJPwX9mJ4DxpiSj-16" target="0f4xCiVm6X6gQx0xvUL8-70" edge="1">
          <mxGeometry relative="1" as="geometry">
            <mxPoint x="570" y="1190" as="targetPoint" />
            <Array as="points">
              <mxPoint x="570" y="1170" />
              <mxPoint x="680" y="1170" />
            </Array>
          </mxGeometry>
        </mxCell>
        <mxCell id="upmV68kgHirFaKxwi3gq-1" style="edgeStyle=orthogonalEdgeStyle;rounded=0;orthogonalLoop=1;jettySize=auto;html=1;exitX=0.75;exitY=0;exitDx=0;exitDy=0;entryX=0.5;entryY=0;entryDx=0;entryDy=0;fontSize=12;startSize=8;endSize=8;" parent="1" source="Zdb9aHJPwX9mJ4DxpiSj-16" target="0f4xCiVm6X6gQx0xvUL8-22" edge="1">
          <mxGeometry relative="1" as="geometry" />
        </mxCell>
        <mxCell id="Zdb9aHJPwX9mJ4DxpiSj-16" value="WIFI_OK" style="rounded=1;whiteSpace=wrap;html=1;fillColor=#f8cecc;strokeColor=#b85450;shadow=1;" parent="1" vertex="1">
          <mxGeometry x="520" y="1020" width="100" height="40" as="geometry" />
        </mxCell>
        <mxCell id="Zdb9aHJPwX9mJ4DxpiSj-19" value="OK" style="text;html=1;align=center;verticalAlign=middle;resizable=0;points=[];autosize=1;strokeColor=#B20000;fillColor=#e51400;fontColor=#ffffff;fillStyle=solid;rounded=1;arcSize=50;" parent="1" vertex="1">
          <mxGeometry x="620" y="750" width="40" height="30" as="geometry" />
        </mxCell>
        <mxCell id="Zdb9aHJPwX9mJ4DxpiSj-20" value="OK" style="text;html=1;align=center;verticalAlign=middle;resizable=0;points=[];autosize=1;strokeColor=#B20000;fillColor=#e51400;fontColor=#ffffff;fillStyle=solid;rounded=1;arcSize=50;" parent="1" vertex="1">
          <mxGeometry x="520" y="1000" width="40" height="30" as="geometry" />
        </mxCell>
        <mxCell id="Zdb9aHJPwX9mJ4DxpiSj-21" value="OK" style="text;html=1;align=center;verticalAlign=middle;resizable=0;points=[];autosize=1;strokeColor=#B20000;fillColor=#e51400;fontColor=#ffffff;fillStyle=solid;rounded=1;arcSize=50;" parent="1" vertex="1">
          <mxGeometry x="920" y="810" width="40" height="30" as="geometry" />
        </mxCell>
        <mxCell id="Zdb9aHJPwX9mJ4DxpiSj-22" value="OK" style="text;html=1;align=center;verticalAlign=middle;resizable=0;points=[];autosize=1;strokeColor=#B20000;fillColor=#e51400;fontColor=#ffffff;fillStyle=solid;rounded=1;arcSize=50;" parent="1" vertex="1">
          <mxGeometry x="690" y="1070" width="40" height="30" as="geometry" />
        </mxCell>
        <mxCell id="Zdb9aHJPwX9mJ4DxpiSj-23" value="OK" style="text;html=1;align=center;verticalAlign=middle;resizable=0;points=[];autosize=1;strokeColor=#B20000;fillColor=#e51400;fontColor=#ffffff;fillStyle=solid;rounded=1;arcSize=50;" parent="1" vertex="1">
          <mxGeometry x="880" y="1070" width="40" height="30" as="geometry" />
        </mxCell>
        <mxCell id="upmV68kgHirFaKxwi3gq-2" value="OK" style="text;html=1;align=center;verticalAlign=middle;resizable=0;points=[];autosize=1;strokeColor=#B20000;fillColor=#e51400;fontColor=#ffffff;fillStyle=solid;rounded=1;arcSize=50;" parent="1" vertex="1">
          <mxGeometry x="720" y="905" width="40" height="30" as="geometry" />
        </mxCell>
        <mxCell id="upmV68kgHirFaKxwi3gq-7" style="edgeStyle=orthogonalEdgeStyle;curved=1;rounded=0;orthogonalLoop=1;jettySize=auto;html=1;exitX=0.75;exitY=0;exitDx=0;exitDy=0;entryX=0.94;entryY=0.05;entryDx=0;entryDy=0;entryPerimeter=0;fontSize=12;startSize=8;endSize=8;" parent="1" source="0f4xCiVm6X6gQx0xvUL8-66" target="0f4xCiVm6X6gQx0xvUL8-66" edge="1">
          <mxGeometry relative="1" as="geometry">
            <Array as="points">
              <mxPoint x="965" y="1050" />
              <mxPoint x="984" y="1050" />
            </Array>
          </mxGeometry>
        </mxCell>
        <mxCell id="upmV68kgHirFaKxwi3gq-8" value="RETRY" style="edgeLabel;html=1;align=center;verticalAlign=middle;resizable=0;points=[];" parent="1" vertex="1" connectable="0">
          <mxGeometry x="950" y="765" as="geometry">
            <mxPoint x="23" y="278" as="offset" />
          </mxGeometry>
        </mxCell>
        <mxCell id="upmV68kgHirFaKxwi3gq-9" value="OK" style="text;html=1;align=center;verticalAlign=middle;resizable=0;points=[];autosize=1;strokeColor=#B20000;fillColor=#e51400;fontColor=#ffffff;fillStyle=solid;rounded=1;arcSize=50;" parent="1" vertex="1">
          <mxGeometry x="710" y="1195" width="40" height="30" as="geometry" />
        </mxCell>
        <mxCell id="upmV68kgHirFaKxwi3gq-10" value="OK" style="text;html=1;align=center;verticalAlign=middle;resizable=0;points=[];autosize=1;strokeColor=#B20000;fillColor=#e51400;fontColor=#ffffff;fillStyle=solid;rounded=1;arcSize=50;" parent="1" vertex="1">
          <mxGeometry x="880" y="1340" width="40" height="30" as="geometry" />
        </mxCell>
        <mxCell id="upmV68kgHirFaKxwi3gq-11" style="edgeStyle=orthogonalEdgeStyle;curved=1;rounded=0;orthogonalLoop=1;jettySize=auto;html=1;exitX=0.75;exitY=0;exitDx=0;exitDy=0;entryX=1;entryY=0;entryDx=0;entryDy=0;fontSize=12;startSize=8;endSize=8;" parent="1" source="0f4xCiVm6X6gQx0xvUL8-73" target="0f4xCiVm6X6gQx0xvUL8-73" edge="1">
          <mxGeometry relative="1" as="geometry">
            <Array as="points">
              <mxPoint x="965" y="1330" />
              <mxPoint x="990" y="1330" />
            </Array>
          </mxGeometry>
        </mxCell>
        <mxCell id="upmV68kgHirFaKxwi3gq-13" value="RETRY" style="edgeLabel;html=1;align=center;verticalAlign=middle;resizable=0;points=[];" parent="1" vertex="1" connectable="0">
          <mxGeometry x="980" y="760" as="geometry">
            <mxPoint x="24" y="565" as="offset" />
          </mxGeometry>
        </mxCell>
        <mxCell id="JKR6g9pF1SF6TcLHYXkg-3" style="edgeStyle=none;curved=1;rounded=0;orthogonalLoop=1;jettySize=auto;html=1;exitX=1;exitY=0.5;exitDx=0;exitDy=0;entryX=0;entryY=0.5;entryDx=0;entryDy=0;fontSize=12;startSize=8;endSize=8;" parent="1" source="JKR6g9pF1SF6TcLHYXkg-1" target="0f4xCiVm6X6gQx0xvUL8-146" edge="1">
          <mxGeometry relative="1" as="geometry" />
        </mxCell>
        <mxCell id="JKR6g9pF1SF6TcLHYXkg-1" value="NONE_SCHEDULE" style="rounded=1;whiteSpace=wrap;html=1;fillColor=#f8cecc;strokeColor=#b85450;shadow=1;" parent="1" vertex="1">
          <mxGeometry x="1315" y="1670" width="110" height="40" as="geometry" />
        </mxCell>
        <mxCell id="JKR6g9pF1SF6TcLHYXkg-4" value="&lt;br&gt;0 PROGRAMAS" style="text;html=1;align=center;verticalAlign=middle;resizable=0;points=[];autosize=1;strokeColor=none;fillColor=none;" parent="1" vertex="1">
          <mxGeometry x="1185" y="1670" width="110" height="40" as="geometry" />
        </mxCell>
        <mxCell id="JKR6g9pF1SF6TcLHYXkg-7" style="edgeStyle=none;curved=1;rounded=0;orthogonalLoop=1;jettySize=auto;html=1;exitX=1;exitY=0.5;exitDx=0;exitDy=0;entryX=0;entryY=0.5;entryDx=0;entryDy=0;fontSize=12;startSize=8;endSize=8;" parent="1" source="JKR6g9pF1SF6TcLHYXkg-5" target="0f4xCiVm6X6gQx0xvUL8-228" edge="1">
          <mxGeometry relative="1" as="geometry" />
        </mxCell>
        <mxCell id="JKR6g9pF1SF6TcLHYXkg-5" value="END_SCHEDULE" style="rounded=1;whiteSpace=wrap;html=1;fillColor=#f8cecc;strokeColor=#b85450;shadow=1;" parent="1" vertex="1">
          <mxGeometry x="1340" y="1878" width="110" height="40" as="geometry" />
        </mxCell>
        <mxCell id="TolWPNAoK_rUhl8P85Vf-1" value="pestaña&lt;br&gt;lecturaTemperatura" style="rounded=1;whiteSpace=wrap;html=1;fontFamily=Helvetica;fontSize=12;fontColor=#333333;fillColor=#f5f5f5;strokeColor=#666666;" parent="1" vertex="1">
          <mxGeometry x="160" y="765" width="120" height="60" as="geometry" />
        </mxCell>
        <mxCell id="TolWPNAoK_rUhl8P85Vf-3" value="OK" style="text;html=1;align=center;verticalAlign=middle;resizable=0;points=[];autosize=1;strokeColor=#B20000;fillColor=#e51400;fontColor=#ffffff;fillStyle=solid;rounded=1;arcSize=50;" parent="1" vertex="1">
          <mxGeometry x="260" y="610" width="40" height="30" as="geometry" />
        </mxCell>
        <mxCell id="TolWPNAoK_rUhl8P85Vf-4" value="OK" style="text;html=1;align=center;verticalAlign=middle;resizable=0;points=[];autosize=1;strokeColor=#B20000;fillColor=#e51400;fontColor=#ffffff;fillStyle=solid;rounded=1;arcSize=50;" parent="1" vertex="1">
          <mxGeometry x="270" y="750" width="40" height="30" as="geometry" />
        </mxCell>
      </root>
    </mxGraphModel>
  </diagram>
  <diagram id="9eClAjpooMBYdQNhUHYl" name="lecturaTemperatura">
    <mxGraphModel dx="7428" dy="2052" grid="0" gridSize="10" guides="1" tooltips="1" connect="1" arrows="1" fold="1" page="0" pageScale="1" pageWidth="3300" pageHeight="2339" math="0" shadow="0">
      <root>
        <mxCell id="0" />
        <mxCell id="1" parent="0" />
        <mxCell id="o2QczGMYnybcqEBsj4U8-2" style="edgeStyle=none;curved=1;rounded=0;orthogonalLoop=1;jettySize=auto;html=1;exitX=0;exitY=0.5;exitDx=0;exitDy=0;fontSize=12;startSize=8;endSize=8;" parent="1" source="ggeR66OYD8D95mV4DZnF-1" target="o2QczGMYnybcqEBsj4U8-1" edge="1">
          <mxGeometry relative="1" as="geometry" />
        </mxCell>
        <mxCell id="XWkfYhZK-dOsFrpOca7M-25" style="edgeStyle=orthogonalEdgeStyle;shape=connector;rounded=0;orthogonalLoop=1;jettySize=auto;html=1;exitX=0.5;exitY=1;exitDx=0;exitDy=0;entryX=0.489;entryY=0;entryDx=0;entryDy=0;entryPerimeter=0;labelBackgroundColor=default;strokeColor=default;fontFamily=Helvetica;fontSize=12;fontColor=default;endArrow=classic;startSize=8;endSize=8;" parent="1" source="ggeR66OYD8D95mV4DZnF-1" target="XWkfYhZK-dOsFrpOca7M-22" edge="1">
          <mxGeometry relative="1" as="geometry" />
        </mxCell>
        <mxCell id="ggeR66OYD8D95mV4DZnF-1" value="&lt;div style=&quot;padding: 0px 0px 0px 2px;&quot;&gt;&lt;div style=&quot;font-family: monospace; font-size: 10pt;&quot;&gt;&lt;p style=&quot;background-color:#e8f2fe;margin:0;&quot;&gt;task_iotThermostat&lt;/p&gt;&lt;/div&gt;&lt;/div&gt;" style="shape=process;whiteSpace=wrap;html=1;backgroundOutline=1;fillColor=#dae8fc;strokeColor=#6c8ebf;" parent="1" vertex="1">
          <mxGeometry x="-4004" y="-333" width="194" height="64" as="geometry" />
        </mxCell>
        <mxCell id="o2QczGMYnybcqEBsj4U8-1" value="" style="sketch=0;pointerEvents=1;shadow=0;dashed=0;html=1;strokeColor=none;fillColor=#505050;labelPosition=center;verticalLabelPosition=bottom;verticalAlign=top;outlineConnect=0;align=center;shape=mxgraph.office.devices.lcd_monitor;fontSize=16;" parent="1" vertex="1">
          <mxGeometry x="-4231" y="-325.5" width="58" height="49" as="geometry" />
        </mxCell>
        <mxCell id="XWkfYhZK-dOsFrpOca7M-1" value="&lt;div style=&quot;background-color:#ffffff;padding:0px 0px 0px 2px;&quot;&gt;&lt;div style=&quot;color: rgb(0, 0, 0); background-color: rgb(255, 255, 255); font-family: Monospace; font-size: 10pt;&quot;&gt;&lt;p style=&quot;background-color:#e8f2fe;margin:0;&quot;&gt;&lt;span style=&quot;color:#000000;&quot;&gt;&lt;/span&gt;&lt;span style=&quot;color:#000000;background-color:#d4d4d4;&quot;&gt;lv_update_relay&lt;/span&gt;&lt;/p&gt;&lt;/div&gt;&lt;/div&gt;" style="text;whiteSpace=wrap;html=1;fontSize=16;" parent="1" vertex="1">
          <mxGeometry x="-4154" y="-330" width="150" height="38" as="geometry" />
        </mxCell>
        <mxCell id="XWkfYhZK-dOsFrpOca7M-27" style="edgeStyle=orthogonalEdgeStyle;shape=connector;rounded=0;orthogonalLoop=1;jettySize=auto;html=1;exitX=0.5;exitY=1;exitDx=0;exitDy=0;labelBackgroundColor=default;strokeColor=default;fontFamily=Helvetica;fontSize=12;fontColor=default;endArrow=classic;startSize=8;endSize=8;" parent="1" source="XWkfYhZK-dOsFrpOca7M-2" target="XWkfYhZK-dOsFrpOca7M-26" edge="1">
          <mxGeometry relative="1" as="geometry" />
        </mxCell>
        <mxCell id="OkS-3AwRdp34gXs-WnmE-24" style="edgeStyle=orthogonalEdgeStyle;shape=connector;rounded=0;orthogonalLoop=1;jettySize=auto;html=1;exitX=1;exitY=0.5;exitDx=0;exitDy=0;labelBackgroundColor=default;strokeColor=default;fontFamily=Helvetica;fontSize=12;fontColor=default;endArrow=classic;startSize=8;endSize=8;" parent="1" source="XWkfYhZK-dOsFrpOca7M-2" target="OkS-3AwRdp34gXs-WnmE-14" edge="1">
          <mxGeometry relative="1" as="geometry" />
        </mxCell>
        <mxCell id="XWkfYhZK-dOsFrpOca7M-2" value="sensor &lt;br&gt;master?" style="rhombus;whiteSpace=wrap;html=1;fontSize=16;fillColor=#dae8fc;strokeColor=#6c8ebf;shadow=0;" parent="1" vertex="1">
          <mxGeometry x="-3974" y="-9" width="134" height="80" as="geometry" />
        </mxCell>
        <mxCell id="XWkfYhZK-dOsFrpOca7M-11" style="edgeStyle=none;curved=1;rounded=0;orthogonalLoop=1;jettySize=auto;html=1;exitX=1;exitY=0.5;exitDx=0;exitDy=0;entryX=0;entryY=0.5;entryDx=0;entryDy=0;entryPerimeter=0;fontSize=12;startSize=8;endSize=8;" parent="1" source="XWkfYhZK-dOsFrpOca7M-3" target="XWkfYhZK-dOsFrpOca7M-10" edge="1">
          <mxGeometry relative="1" as="geometry" />
        </mxCell>
        <mxCell id="XWkfYhZK-dOsFrpOca7M-20" value="NO" style="edgeLabel;html=1;align=center;verticalAlign=middle;resizable=0;points=[];fontSize=12;fontFamily=Helvetica;fontColor=default;" parent="XWkfYhZK-dOsFrpOca7M-11" vertex="1" connectable="0">
          <mxGeometry x="-0.3721" relative="1" as="geometry">
            <mxPoint as="offset" />
          </mxGeometry>
        </mxCell>
        <mxCell id="XWkfYhZK-dOsFrpOca7M-13" style="edgeStyle=orthogonalEdgeStyle;rounded=0;orthogonalLoop=1;jettySize=auto;html=1;exitX=0.5;exitY=1;exitDx=0;exitDy=0;entryX=0;entryY=0.5;entryDx=0;entryDy=0;entryPerimeter=0;fontSize=12;startSize=8;endSize=8;" parent="1" source="XWkfYhZK-dOsFrpOca7M-3" target="XWkfYhZK-dOsFrpOca7M-12" edge="1">
          <mxGeometry relative="1" as="geometry" />
        </mxCell>
        <mxCell id="XWkfYhZK-dOsFrpOca7M-21" value="YES" style="edgeLabel;html=1;align=center;verticalAlign=middle;resizable=0;points=[];fontSize=12;fontFamily=Helvetica;fontColor=default;" parent="XWkfYhZK-dOsFrpOca7M-13" vertex="1" connectable="0">
          <mxGeometry x="0.3784" y="2" relative="1" as="geometry">
            <mxPoint as="offset" />
          </mxGeometry>
        </mxCell>
        <mxCell id="XWkfYhZK-dOsFrpOca7M-3" value="ALARM_APP ON?" style="rhombus;whiteSpace=wrap;html=1;fontSize=16;fillColor=#dae8fc;strokeColor=#6c8ebf;shadow=0;" parent="1" vertex="1">
          <mxGeometry x="-3437" y="-243.5" width="152" height="80" as="geometry" />
        </mxCell>
        <mxCell id="XWkfYhZK-dOsFrpOca7M-10" value="Delay: read_interval" style="strokeWidth=2;html=1;shape=mxgraph.flowchart.delay;whiteSpace=wrap;fontSize=16;fillColor=#dae8fc;strokeColor=#6c8ebf;" parent="1" vertex="1">
          <mxGeometry x="-3168" y="-233.5" width="140" height="60" as="geometry" />
        </mxCell>
        <mxCell id="XWkfYhZK-dOsFrpOca7M-12" value="Delay: retry_interval" style="strokeWidth=2;html=1;shape=mxgraph.flowchart.delay;whiteSpace=wrap;fontSize=16;fillColor=#dae8fc;strokeColor=#6c8ebf;" parent="1" vertex="1">
          <mxGeometry x="-3168" y="-137.5" width="140" height="60" as="geometry" />
        </mxCell>
        <mxCell id="XWkfYhZK-dOsFrpOca7M-24" style="edgeStyle=orthogonalEdgeStyle;shape=connector;rounded=0;orthogonalLoop=1;jettySize=auto;html=1;exitX=0.5;exitY=1;exitDx=0;exitDy=0;entryX=0.5;entryY=0;entryDx=0;entryDy=0;labelBackgroundColor=default;strokeColor=default;fontFamily=Helvetica;fontSize=12;fontColor=default;endArrow=classic;startSize=8;endSize=8;" parent="1" source="XWkfYhZK-dOsFrpOca7M-15" target="XWkfYhZK-dOsFrpOca7M-2" edge="1">
          <mxGeometry relative="1" as="geometry" />
        </mxCell>
        <mxCell id="XWkfYhZK-dOsFrpOca7M-15" value="reading_remperature" style="shape=process;whiteSpace=wrap;html=1;backgroundOutline=1;fillColor=#dae8fc;strokeColor=#6c8ebf;" parent="1" vertex="1">
          <mxGeometry x="-4004" y="-139" width="194" height="64" as="geometry" />
        </mxCell>
        <mxCell id="XWkfYhZK-dOsFrpOca7M-23" style="edgeStyle=orthogonalEdgeStyle;shape=connector;rounded=0;orthogonalLoop=1;jettySize=auto;html=1;exitX=0.5;exitY=1;exitDx=0;exitDy=0;entryX=0.5;entryY=0;entryDx=0;entryDy=0;labelBackgroundColor=default;strokeColor=default;fontFamily=Helvetica;fontSize=12;fontColor=default;endArrow=classic;startSize=8;endSize=8;" parent="1" source="XWkfYhZK-dOsFrpOca7M-22" target="XWkfYhZK-dOsFrpOca7M-15" edge="1">
          <mxGeometry relative="1" as="geometry" />
        </mxCell>
        <mxCell id="XWkfYhZK-dOsFrpOca7M-33" style="edgeStyle=orthogonalEdgeStyle;shape=connector;rounded=0;orthogonalLoop=1;jettySize=auto;html=1;exitX=1;exitY=0.5;exitDx=0;exitDy=0;entryX=0;entryY=0.5;entryDx=0;entryDy=0;labelBackgroundColor=default;strokeColor=default;fontFamily=Helvetica;fontSize=12;fontColor=default;endArrow=classic;startSize=8;endSize=8;" parent="1" source="XWkfYhZK-dOsFrpOca7M-22" target="XWkfYhZK-dOsFrpOca7M-3" edge="1">
          <mxGeometry relative="1" as="geometry" />
        </mxCell>
        <mxCell id="XWkfYhZK-dOsFrpOca7M-22" value="" style="ellipse;whiteSpace=wrap;html=1;aspect=fixed;fontFamily=Helvetica;fontSize=12;fillColor=#dae8fc;strokeColor=#6c8ebf;" parent="1" vertex="1">
          <mxGeometry x="-3929.5" y="-226" width="45" height="45" as="geometry" />
        </mxCell>
        <mxCell id="XWkfYhZK-dOsFrpOca7M-39" style="edgeStyle=orthogonalEdgeStyle;shape=connector;rounded=0;orthogonalLoop=1;jettySize=auto;html=1;exitX=0.5;exitY=1;exitDx=0;exitDy=0;entryX=0.5;entryY=0;entryDx=0;entryDy=0;labelBackgroundColor=default;strokeColor=default;fontFamily=Helvetica;fontSize=12;fontColor=default;endArrow=classic;startSize=8;endSize=8;" parent="1" source="XWkfYhZK-dOsFrpOca7M-26" target="XWkfYhZK-dOsFrpOca7M-34" edge="1">
          <mxGeometry relative="1" as="geometry" />
        </mxCell>
        <mxCell id="XWkfYhZK-dOsFrpOca7M-26" value="reading_local_remperature" style="shape=process;whiteSpace=wrap;html=1;backgroundOutline=1;fillColor=#dae8fc;strokeColor=#6c8ebf;" parent="1" vertex="1">
          <mxGeometry x="-4004" y="143" width="194" height="64" as="geometry" />
        </mxCell>
        <mxCell id="VHgzWh024f2FJKamQpgE-3" style="edgeStyle=orthogonalEdgeStyle;shape=connector;rounded=0;orthogonalLoop=1;jettySize=auto;html=1;exitX=0.5;exitY=1;exitDx=0;exitDy=0;labelBackgroundColor=default;strokeColor=default;fontFamily=Helvetica;fontSize=12;fontColor=default;endArrow=classic;startSize=8;endSize=8;" parent="1" source="XWkfYhZK-dOsFrpOca7M-34" target="VHgzWh024f2FJKamQpgE-1" edge="1">
          <mxGeometry relative="1" as="geometry" />
        </mxCell>
        <mxCell id="VHgzWh024f2FJKamQpgE-5" style="edgeStyle=orthogonalEdgeStyle;shape=connector;rounded=0;orthogonalLoop=1;jettySize=auto;html=1;exitX=0;exitY=0.5;exitDx=0;exitDy=0;labelBackgroundColor=default;strokeColor=default;fontFamily=Helvetica;fontSize=12;fontColor=default;endArrow=classic;startSize=8;endSize=8;" parent="1" source="XWkfYhZK-dOsFrpOca7M-34" target="VHgzWh024f2FJKamQpgE-2" edge="1">
          <mxGeometry relative="1" as="geometry" />
        </mxCell>
        <mxCell id="VHgzWh024f2FJKamQpgE-6" value="NO OK" style="edgeLabel;html=1;align=center;verticalAlign=middle;resizable=0;points=[];fontSize=12;fontFamily=Helvetica;fontColor=default;" parent="VHgzWh024f2FJKamQpgE-5" vertex="1" connectable="0">
          <mxGeometry x="-0.5338" y="-3" relative="1" as="geometry">
            <mxPoint x="7" y="20" as="offset" />
          </mxGeometry>
        </mxCell>
        <mxCell id="XWkfYhZK-dOsFrpOca7M-34" value="result&lt;br&gt;" style="rhombus;whiteSpace=wrap;html=1;fontSize=16;fillColor=#dae8fc;strokeColor=#6c8ebf;shadow=0;" parent="1" vertex="1">
          <mxGeometry x="-3993" y="290" width="172" height="81" as="geometry" />
        </mxCell>
        <mxCell id="VHgzWh024f2FJKamQpgE-11" style="edgeStyle=orthogonalEdgeStyle;shape=connector;rounded=0;orthogonalLoop=1;jettySize=auto;html=1;exitX=0.5;exitY=1;exitDx=0;exitDy=0;entryX=0.5;entryY=0;entryDx=0;entryDy=0;labelBackgroundColor=default;strokeColor=default;fontFamily=Helvetica;fontSize=12;fontColor=default;endArrow=classic;startSize=8;endSize=8;" parent="1" source="VHgzWh024f2FJKamQpgE-1" target="VHgzWh024f2FJKamQpgE-10" edge="1">
          <mxGeometry relative="1" as="geometry" />
        </mxCell>
        <mxCell id="VHgzWh024f2FJKamQpgE-1" value="EVENT&lt;br&gt;ANSWER&lt;br&gt;TEMPERATURE" style="rounded=1;whiteSpace=wrap;html=1;fontSize=16;fillColor=#e1d5e7;strokeColor=#9673a6;" parent="1" vertex="1">
          <mxGeometry x="-3986" y="470" width="158" height="76" as="geometry" />
        </mxCell>
        <mxCell id="VHgzWh024f2FJKamQpgE-34" style="edgeStyle=orthogonalEdgeStyle;shape=connector;rounded=0;orthogonalLoop=1;jettySize=auto;html=1;exitX=0.5;exitY=1;exitDx=0;exitDy=0;entryX=0.5;entryY=0;entryDx=0;entryDy=0;labelBackgroundColor=default;strokeColor=default;fontFamily=Helvetica;fontSize=12;fontColor=default;endArrow=classic;startSize=8;endSize=8;" parent="1" source="VHgzWh024f2FJKamQpgE-2" target="VHgzWh024f2FJKamQpgE-33" edge="1">
          <mxGeometry relative="1" as="geometry" />
        </mxCell>
        <mxCell id="VHgzWh024f2FJKamQpgE-2" value="EVENT&lt;br&gt;ERROR&lt;br&gt;LOCAL&lt;br&gt;TEMPERATURE" style="rounded=1;whiteSpace=wrap;html=1;fontSize=16;fillColor=#e1d5e7;strokeColor=#9673a6;" parent="1" vertex="1">
          <mxGeometry x="-4571" y="470" width="158" height="83.5" as="geometry" />
        </mxCell>
        <mxCell id="VHgzWh024f2FJKamQpgE-7" value="&lt;span style=&quot;color: rgb(0, 0, 0); font-family: Helvetica; font-size: 12px; font-style: normal; font-variant-ligatures: normal; font-variant-caps: normal; font-weight: 400; letter-spacing: normal; orphans: 2; text-align: center; text-indent: 0px; text-transform: none; widows: 2; word-spacing: 0px; -webkit-text-stroke-width: 0px; background-color: rgb(255, 255, 255); text-decoration-thickness: initial; text-decoration-style: initial; text-decoration-color: initial; float: none; display: inline !important;&quot;&gt;OK&lt;/span&gt;" style="text;whiteSpace=wrap;html=1;fontSize=12;fontFamily=Helvetica;fontColor=default;" parent="1" vertex="1">
          <mxGeometry x="-3900" y="396" width="30" height="36" as="geometry" />
        </mxCell>
        <mxCell id="VHgzWh024f2FJKamQpgE-13" style="edgeStyle=orthogonalEdgeStyle;shape=connector;rounded=0;orthogonalLoop=1;jettySize=auto;html=1;exitX=0.5;exitY=1;exitDx=0;exitDy=0;entryX=0.5;entryY=0;entryDx=0;entryDy=0;labelBackgroundColor=default;strokeColor=default;fontFamily=Helvetica;fontSize=12;fontColor=default;endArrow=classic;startSize=8;endSize=8;" parent="1" source="VHgzWh024f2FJKamQpgE-10" target="VHgzWh024f2FJKamQpgE-12" edge="1">
          <mxGeometry relative="1" as="geometry" />
        </mxCell>
        <mxCell id="VHgzWh024f2FJKamQpgE-10" value="process_local_event_timeout_reading_temperature&lt;br&gt;reset fail counter" style="rounded=1;whiteSpace=wrap;html=1;fontFamily=Helvetica;fontSize=12;fillColor=#dae8fc;strokeColor=#6c8ebf;" parent="1" vertex="1">
          <mxGeometry x="-4049.5" y="655" width="285" height="60" as="geometry" />
        </mxCell>
        <mxCell id="VHgzWh024f2FJKamQpgE-24" style="edgeStyle=orthogonalEdgeStyle;shape=connector;rounded=0;orthogonalLoop=1;jettySize=auto;html=1;exitX=0.5;exitY=1;exitDx=0;exitDy=0;entryX=0.5;entryY=0;entryDx=0;entryDy=0;labelBackgroundColor=default;strokeColor=default;fontFamily=Helvetica;fontSize=12;fontColor=default;endArrow=classic;startSize=8;endSize=8;" parent="1" source="VHgzWh024f2FJKamQpgE-12" target="VHgzWh024f2FJKamQpgE-23" edge="1">
          <mxGeometry relative="1" as="geometry" />
        </mxCell>
        <mxCell id="VHgzWh024f2FJKamQpgE-12" value="&lt;div style=&quot;padding: 0px 0px 0px 2px;&quot;&gt;&lt;div style=&quot;font-family: monospace; font-size: 10pt;&quot;&gt;&lt;p style=&quot;background-color:#e8f2fe;margin:0;&quot;&gt;appuser_received_local_event&lt;/p&gt;&lt;/div&gt;&lt;/div&gt;" style="shape=process;whiteSpace=wrap;html=1;backgroundOutline=1;fontFamily=Helvetica;fontSize=12;fillColor=#e3c800;strokeColor=#B09500;fontColor=#000000;" parent="1" vertex="1">
          <mxGeometry x="-4071" y="812" width="328" height="60" as="geometry" />
        </mxCell>
        <mxCell id="VHgzWh024f2FJKamQpgE-22" style="edgeStyle=orthogonalEdgeStyle;shape=connector;rounded=0;orthogonalLoop=1;jettySize=auto;html=1;exitX=0.5;exitY=1;exitDx=0;exitDy=0;entryX=0.5;entryY=0;entryDx=0;entryDy=0;labelBackgroundColor=default;strokeColor=default;fontFamily=Helvetica;fontSize=12;fontColor=default;endArrow=classic;startSize=8;endSize=8;" parent="1" source="VHgzWh024f2FJKamQpgE-14" target="VHgzWh024f2FJKamQpgE-16" edge="1">
          <mxGeometry relative="1" as="geometry" />
        </mxCell>
        <mxCell id="VHgzWh024f2FJKamQpgE-14" value="thermostat_action" style="shape=process;whiteSpace=wrap;html=1;backgroundOutline=1;fontFamily=Helvetica;fontSize=12;fillColor=#dae8fc;strokeColor=#6c8ebf;" parent="1" vertex="1">
          <mxGeometry x="-3989" y="1145" width="164" height="60" as="geometry" />
        </mxCell>
        <mxCell id="VHgzWh024f2FJKamQpgE-26" style="edgeStyle=orthogonalEdgeStyle;shape=connector;rounded=0;orthogonalLoop=1;jettySize=auto;html=1;exitX=0.5;exitY=1;exitDx=0;exitDy=0;entryX=0.5;entryY=0;entryDx=0;entryDy=0;labelBackgroundColor=default;strokeColor=default;fontFamily=Helvetica;fontSize=12;fontColor=default;endArrow=classic;startSize=8;endSize=8;" parent="1" source="VHgzWh024f2FJKamQpgE-16" target="VHgzWh024f2FJKamQpgE-20" edge="1">
          <mxGeometry relative="1" as="geometry" />
        </mxCell>
        <mxCell id="VHgzWh024f2FJKamQpgE-16" value="action thermostat?" style="rhombus;whiteSpace=wrap;html=1;fontFamily=Helvetica;fontSize=12;fillColor=#dae8fc;strokeColor=#6c8ebf;" parent="1" vertex="1">
          <mxGeometry x="-4001" y="1310" width="188" height="80" as="geometry" />
        </mxCell>
        <mxCell id="VHgzWh024f2FJKamQpgE-31" style="edgeStyle=orthogonalEdgeStyle;shape=connector;rounded=0;orthogonalLoop=1;jettySize=auto;html=1;exitX=1;exitY=0.5;exitDx=0;exitDy=0;labelBackgroundColor=default;strokeColor=default;fontFamily=Helvetica;fontSize=12;fontColor=default;endArrow=classic;startSize=8;endSize=8;" parent="1" source="VHgzWh024f2FJKamQpgE-20" target="VHgzWh024f2FJKamQpgE-28" edge="1">
          <mxGeometry relative="1" as="geometry" />
        </mxCell>
        <mxCell id="VHgzWh024f2FJKamQpgE-20" value="relay_opeation" style="shape=process;whiteSpace=wrap;html=1;backgroundOutline=1;fontFamily=Helvetica;fontSize=12;fillColor=#dae8fc;strokeColor=#6c8ebf;" parent="1" vertex="1">
          <mxGeometry x="-3989" y="1477" width="164" height="60" as="geometry" />
        </mxCell>
        <mxCell id="VHgzWh024f2FJKamQpgE-25" style="edgeStyle=orthogonalEdgeStyle;shape=connector;rounded=0;orthogonalLoop=1;jettySize=auto;html=1;exitX=0.5;exitY=1;exitDx=0;exitDy=0;labelBackgroundColor=default;strokeColor=default;fontFamily=Helvetica;fontSize=12;fontColor=default;endArrow=classic;startSize=8;endSize=8;" parent="1" source="VHgzWh024f2FJKamQpgE-23" target="VHgzWh024f2FJKamQpgE-14" edge="1">
          <mxGeometry relative="1" as="geometry" />
        </mxCell>
        <mxCell id="OkS-3AwRdp34gXs-WnmE-11" style="edgeStyle=orthogonalEdgeStyle;shape=connector;rounded=0;orthogonalLoop=1;jettySize=auto;html=1;exitX=1;exitY=0.5;exitDx=0;exitDy=0;labelBackgroundColor=default;strokeColor=default;fontFamily=Helvetica;fontSize=12;fontColor=default;endArrow=classic;startSize=8;endSize=8;" parent="1" source="VHgzWh024f2FJKamQpgE-23" target="OkS-3AwRdp34gXs-WnmE-10" edge="1">
          <mxGeometry relative="1" as="geometry" />
        </mxCell>
        <mxCell id="VHgzWh024f2FJKamQpgE-23" value="&lt;div style=&quot;padding: 0px 0px 0px 2px;&quot;&gt;&lt;div style=&quot;font-family: monospace; font-size: 10pt;&quot;&gt;&lt;p style=&quot;background-color:#e8f2fe;margin:0;&quot;&gt;update_thermostat_device&lt;/p&gt;&lt;/div&gt;&lt;/div&gt;" style="shape=process;whiteSpace=wrap;html=1;backgroundOutline=1;fontFamily=Helvetica;fontSize=12;fillColor=#dae8fc;strokeColor=#6c8ebf;" parent="1" vertex="1">
          <mxGeometry x="-4029" y="962" width="244" height="80" as="geometry" />
        </mxCell>
        <mxCell id="VHgzWh024f2FJKamQpgE-27" value="YES" style="text;html=1;align=center;verticalAlign=middle;resizable=0;points=[];autosize=1;strokeColor=none;fillColor=none;fontSize=16;fontFamily=Helvetica;fontColor=default;" parent="1" vertex="1">
          <mxGeometry x="-3913" y="1412" width="50" height="31" as="geometry" />
        </mxCell>
        <mxCell id="VHgzWh024f2FJKamQpgE-28" value="" style="sketch=0;pointerEvents=1;shadow=0;dashed=0;html=1;strokeColor=none;fillColor=#505050;labelPosition=center;verticalLabelPosition=bottom;verticalAlign=top;outlineConnect=0;align=center;shape=mxgraph.office.devices.lcd_monitor;fontSize=16;" parent="1" vertex="1">
          <mxGeometry x="-3541" y="1482.5" width="58" height="49" as="geometry" />
        </mxCell>
        <mxCell id="VHgzWh024f2FJKamQpgE-30" value="&lt;div style=&quot;background-color:#ffffff;padding:0px 0px 0px 2px;&quot;&gt;&lt;div style=&quot;color: rgb(0, 0, 0); background-color: rgb(255, 255, 255); font-family: Monospace; font-size: 10pt;&quot;&gt;&lt;p style=&quot;background-color:#e8f2fe;margin:0;&quot;&gt;&lt;span style=&quot;color:#000000;&quot;&gt;&lt;/span&gt;&lt;span style=&quot;color:#000000;background-color:#d4d4d4;&quot;&gt;lv_update_temperature&lt;/span&gt;&lt;/p&gt;&lt;/div&gt;&lt;/div&gt;" style="text;whiteSpace=wrap;html=1;fontSize=12;fontFamily=Helvetica;fontColor=default;" parent="1" vertex="1">
          <mxGeometry x="-3777" y="1467.9966666666664" width="199" height="38" as="geometry" />
        </mxCell>
        <mxCell id="VHgzWh024f2FJKamQpgE-36" style="edgeStyle=orthogonalEdgeStyle;shape=connector;rounded=0;orthogonalLoop=1;jettySize=auto;html=1;exitX=0.5;exitY=1;exitDx=0;exitDy=0;entryX=0.5;entryY=0;entryDx=0;entryDy=0;labelBackgroundColor=default;strokeColor=default;fontFamily=Helvetica;fontSize=12;fontColor=default;endArrow=classic;startSize=8;endSize=8;" parent="1" source="VHgzWh024f2FJKamQpgE-33" target="VHgzWh024f2FJKamQpgE-35" edge="1">
          <mxGeometry relative="1" as="geometry" />
        </mxCell>
        <mxCell id="VHgzWh024f2FJKamQpgE-33" value="&lt;div style=&quot;padding: 0px 0px 0px 2px;&quot;&gt;&lt;div style=&quot;font-family: monospace; font-size: 10pt;&quot;&gt;&lt;p style=&quot;background-color:#e8f2fe;margin:0;&quot;&gt;process_local_event_timeout_reading_temperature&lt;/p&gt;&lt;p style=&quot;background-color:#e8f2fe;margin:0;&quot;&gt;fail counter ++&lt;/p&gt;&lt;/div&gt;&lt;/div&gt;" style="rounded=1;whiteSpace=wrap;html=1;fontFamily=Helvetica;fontSize=12;fillColor=#dae8fc;strokeColor=#6c8ebf;" parent="1" vertex="1">
          <mxGeometry x="-4688" y="679" width="392" height="60" as="geometry" />
        </mxCell>
        <mxCell id="VHgzWh024f2FJKamQpgE-38" style="edgeStyle=orthogonalEdgeStyle;shape=connector;rounded=0;orthogonalLoop=1;jettySize=auto;html=1;exitX=0.5;exitY=1;exitDx=0;exitDy=0;entryX=0.5;entryY=0;entryDx=0;entryDy=0;labelBackgroundColor=default;strokeColor=default;fontFamily=Helvetica;fontSize=12;fontColor=default;endArrow=classic;startSize=8;endSize=8;" parent="1" source="VHgzWh024f2FJKamQpgE-35" target="VHgzWh024f2FJKamQpgE-37" edge="1">
          <mxGeometry relative="1" as="geometry" />
        </mxCell>
        <mxCell id="VHgzWh024f2FJKamQpgE-41" style="edgeStyle=orthogonalEdgeStyle;shape=connector;rounded=0;orthogonalLoop=1;jettySize=auto;html=1;exitX=1;exitY=0.5;exitDx=0;exitDy=0;entryX=0;entryY=0.5;entryDx=0;entryDy=0;labelBackgroundColor=default;strokeColor=default;fontFamily=Helvetica;fontSize=12;fontColor=default;endArrow=classic;startSize=8;endSize=8;" parent="1" source="VHgzWh024f2FJKamQpgE-35" target="VHgzWh024f2FJKamQpgE-40" edge="1">
          <mxGeometry relative="1" as="geometry" />
        </mxCell>
        <mxCell id="VHgzWh024f2FJKamQpgE-35" value="fail counter &amp;gt; num fails" style="rhombus;whiteSpace=wrap;html=1;fontFamily=Helvetica;fontSize=12;fillColor=#dae8fc;strokeColor=#6c8ebf;" parent="1" vertex="1">
          <mxGeometry x="-4601" y="869" width="218" height="80" as="geometry" />
        </mxCell>
        <mxCell id="OkS-3AwRdp34gXs-WnmE-2" style="edgeStyle=orthogonalEdgeStyle;shape=connector;rounded=0;orthogonalLoop=1;jettySize=auto;html=1;exitX=0.5;exitY=1;exitDx=0;exitDy=0;entryX=0.5;entryY=0;entryDx=0;entryDy=0;labelBackgroundColor=default;strokeColor=default;fontFamily=Helvetica;fontSize=12;fontColor=default;endArrow=classic;startSize=8;endSize=8;" parent="1" source="VHgzWh024f2FJKamQpgE-37" target="OkS-3AwRdp34gXs-WnmE-1" edge="1">
          <mxGeometry relative="1" as="geometry" />
        </mxCell>
        <mxCell id="VHgzWh024f2FJKamQpgE-37" value="EVENT&lt;br&gt;ERROR&lt;br&gt;REMOTE&lt;br&gt;DEVICE" style="rounded=1;whiteSpace=wrap;html=1;fontSize=16;fillColor=#e1d5e7;strokeColor=#9673a6;" parent="1" vertex="1">
          <mxGeometry x="-4571" y="1076" width="158" height="83.5" as="geometry" />
        </mxCell>
        <mxCell id="VHgzWh024f2FJKamQpgE-40" value="fail counter ++" style="rounded=1;whiteSpace=wrap;html=1;fontFamily=Helvetica;fontSize=12;fillColor=#dae8fc;strokeColor=#6c8ebf;" parent="1" vertex="1">
          <mxGeometry x="-4304" y="879" width="120" height="60" as="geometry" />
        </mxCell>
        <mxCell id="OkS-3AwRdp34gXs-WnmE-6" style="edgeStyle=orthogonalEdgeStyle;shape=connector;rounded=0;orthogonalLoop=1;jettySize=auto;html=1;exitX=0.5;exitY=1;exitDx=0;exitDy=0;entryX=0.5;entryY=0;entryDx=0;entryDy=0;labelBackgroundColor=default;strokeColor=default;fontFamily=Helvetica;fontSize=12;fontColor=default;endArrow=classic;startSize=8;endSize=8;" parent="1" source="OkS-3AwRdp34gXs-WnmE-1" target="OkS-3AwRdp34gXs-WnmE-5" edge="1">
          <mxGeometry relative="1" as="geometry" />
        </mxCell>
        <mxCell id="OkS-3AwRdp34gXs-WnmE-1" value="ALARM_REMOTE_DEVICE ON" style="rounded=1;whiteSpace=wrap;html=1;fontFamily=Helvetica;fontSize=12;fontColor=#ffffff;fillColor=#e51400;strokeColor=#B20000;" parent="1" vertex="1">
          <mxGeometry x="-4606" y="1287" width="228" height="60" as="geometry" />
        </mxCell>
        <mxCell id="OkS-3AwRdp34gXs-WnmE-3" value="" style="html=1;verticalLabelPosition=bottom;labelBackgroundColor=#ffffff;verticalAlign=top;shadow=0;dashed=0;strokeWidth=7;shape=mxgraph.ios7.misc.check;strokeColor=#005700;fontFamily=Helvetica;fontSize=12;fontColor=#ffffff;fillColor=#008a00;" parent="1" vertex="1">
          <mxGeometry x="-3819" y="-338" width="37" height="33" as="geometry" />
        </mxCell>
        <mxCell id="OkS-3AwRdp34gXs-WnmE-8" style="edgeStyle=orthogonalEdgeStyle;shape=connector;rounded=0;orthogonalLoop=1;jettySize=auto;html=1;exitX=0;exitY=0.5;exitDx=0;exitDy=0;labelBackgroundColor=default;strokeColor=default;fontFamily=Helvetica;fontSize=12;fontColor=default;endArrow=classic;startSize=8;endSize=8;" parent="1" source="OkS-3AwRdp34gXs-WnmE-5" target="OkS-3AwRdp34gXs-WnmE-7" edge="1">
          <mxGeometry relative="1" as="geometry" />
        </mxCell>
        <mxCell id="OkS-3AwRdp34gXs-WnmE-5" value="&lt;div style=&quot;padding: 0px 0px 0px 2px;&quot;&gt;&lt;div style=&quot;font-family: monospace; font-size: 10pt;&quot;&gt;&lt;div style=&quot;padding: 0px 0px 0px 2px;&quot;&gt;&lt;div style=&quot;font-family: monospace; font-size: 10pt;&quot;&gt;&lt;p style=&quot;background-color:#e8f2fe;margin:0;&quot;&gt;appuser_notify_alarm_on_device&lt;/p&gt;&lt;/div&gt;&lt;/div&gt;&lt;/div&gt;&lt;/div&gt;" style="shape=process;whiteSpace=wrap;html=1;backgroundOutline=1;fontFamily=Helvetica;fontSize=12;fillColor=#e3c800;strokeColor=#B09500;fontColor=#000000;" parent="1" vertex="1">
          <mxGeometry x="-4656" y="1462" width="328" height="60" as="geometry" />
        </mxCell>
        <mxCell id="OkS-3AwRdp34gXs-WnmE-7" value="" style="sketch=0;pointerEvents=1;shadow=0;dashed=0;html=1;strokeColor=none;fillColor=#505050;labelPosition=center;verticalLabelPosition=bottom;verticalAlign=top;outlineConnect=0;align=center;shape=mxgraph.office.devices.lcd_monitor;fontSize=16;" parent="1" vertex="1">
          <mxGeometry x="-5022" y="1468" width="58" height="49" as="geometry" />
        </mxCell>
        <mxCell id="OkS-3AwRdp34gXs-WnmE-9" value="&lt;div style=&quot;background-color:#ffffff;padding:0px 0px 0px 2px;&quot;&gt;&lt;div style=&quot;color: rgb(0, 0, 0); background-color: rgb(255, 255, 255); font-family: Monospace; font-size: 10pt;&quot;&gt;&lt;p style=&quot;background-color:#e8f2fe;margin:0;&quot;&gt;&lt;span style=&quot;color:#000000;&quot;&gt;&lt;/span&gt;&lt;span style=&quot;color:#000000;background-color:#d4d4d4;&quot;&gt;lv_update_alarm_device&lt;/span&gt;&lt;/p&gt;&lt;/div&gt;&lt;/div&gt;" style="text;whiteSpace=wrap;html=1;fontSize=12;fontFamily=Helvetica;fontColor=default;" parent="1" vertex="1">
          <mxGeometry x="-4909.996666666666" y="1457.9966666666664" width="207" height="38" as="geometry" />
        </mxCell>
        <mxCell id="OkS-3AwRdp34gXs-WnmE-10" value="" style="sketch=0;pointerEvents=1;shadow=0;dashed=0;html=1;strokeColor=none;fillColor=#505050;labelPosition=center;verticalLabelPosition=bottom;verticalAlign=top;outlineConnect=0;align=center;shape=mxgraph.office.devices.lcd_monitor;fontSize=16;" parent="1" vertex="1">
          <mxGeometry x="-3517" y="977.5" width="58" height="49" as="geometry" />
        </mxCell>
        <mxCell id="OkS-3AwRdp34gXs-WnmE-12" value="&lt;div style=&quot;background-color:#ffffff;padding:0px 0px 0px 2px;&quot;&gt;&lt;div style=&quot;color: rgb(0, 0, 0); background-color: rgb(255, 255, 255); font-family: Monospace; font-size: 10pt;&quot;&gt;&lt;p style=&quot;background-color:#e8f2fe;margin:0;&quot;&gt;&lt;span style=&quot;color:#000000;&quot;&gt;&lt;/span&gt;&lt;span style=&quot;color:#000000;background-color:#d4d4d4;&quot;&gt;lv_update_temperature&lt;/span&gt;&lt;/p&gt;&lt;/div&gt;&lt;/div&gt;" style="text;whiteSpace=wrap;html=1;fontSize=12;fontFamily=Helvetica;fontColor=default;" parent="1" vertex="1">
          <mxGeometry x="-3737.9966666666664" y="970.0033333333334" width="199" height="38" as="geometry" />
        </mxCell>
        <mxCell id="OkS-3AwRdp34gXs-WnmE-13" value="YES" style="text;html=1;align=center;verticalAlign=middle;resizable=0;points=[];autosize=1;strokeColor=none;fillColor=none;fontSize=16;fontFamily=Helvetica;fontColor=default;" parent="1" vertex="1">
          <mxGeometry x="-3918" y="97" width="50" height="31" as="geometry" />
        </mxCell>
        <mxCell id="OkS-3AwRdp34gXs-WnmE-26" style="edgeStyle=orthogonalEdgeStyle;shape=connector;rounded=0;orthogonalLoop=1;jettySize=auto;html=1;exitX=0.5;exitY=1;exitDx=0;exitDy=0;entryX=0.5;entryY=0;entryDx=0;entryDy=0;labelBackgroundColor=default;strokeColor=default;fontFamily=Helvetica;fontSize=12;fontColor=default;endArrow=classic;startSize=8;endSize=8;" parent="1" source="OkS-3AwRdp34gXs-WnmE-14" target="OkS-3AwRdp34gXs-WnmE-16" edge="1">
          <mxGeometry relative="1" as="geometry" />
        </mxCell>
        <mxCell id="OkS-3AwRdp34gXs-WnmE-14" value="reading_remote_remperature" style="shape=process;whiteSpace=wrap;html=1;backgroundOutline=1;fillColor=#dae8fc;strokeColor=#6c8ebf;" parent="1" vertex="1">
          <mxGeometry x="-3446" y="-1" width="194" height="64" as="geometry" />
        </mxCell>
        <mxCell id="OkS-3AwRdp34gXs-WnmE-25" style="edgeStyle=orthogonalEdgeStyle;shape=connector;rounded=0;orthogonalLoop=1;jettySize=auto;html=1;exitX=0;exitY=0.5;exitDx=0;exitDy=0;entryX=1;entryY=0.5;entryDx=0;entryDy=0;labelBackgroundColor=default;strokeColor=default;fontFamily=Helvetica;fontSize=12;fontColor=default;endArrow=classic;startSize=8;endSize=8;" parent="1" source="OkS-3AwRdp34gXs-WnmE-16" target="XWkfYhZK-dOsFrpOca7M-26" edge="1">
          <mxGeometry relative="1" as="geometry" />
        </mxCell>
        <mxCell id="OkS-3AwRdp34gXs-WnmE-29" style="edgeStyle=orthogonalEdgeStyle;shape=connector;rounded=0;orthogonalLoop=1;jettySize=auto;html=1;exitX=1;exitY=0.5;exitDx=0;exitDy=0;entryX=0;entryY=0.5;entryDx=0;entryDy=0;labelBackgroundColor=default;strokeColor=default;fontFamily=Helvetica;fontSize=12;fontColor=default;endArrow=classic;startSize=8;endSize=8;" parent="1" source="OkS-3AwRdp34gXs-WnmE-16" target="OkS-3AwRdp34gXs-WnmE-27" edge="1">
          <mxGeometry relative="1" as="geometry" />
        </mxCell>
        <mxCell id="OkS-3AwRdp34gXs-WnmE-16" value="ALARM&lt;br&gt;REMOTE&lt;br&gt;DEVICE?" style="rhombus;whiteSpace=wrap;html=1;fontSize=16;fillColor=#dae8fc;strokeColor=#6c8ebf;shadow=0;" parent="1" vertex="1">
          <mxGeometry x="-3431.5" y="128.5" width="165" height="93" as="geometry" />
        </mxCell>
        <mxCell id="OkS-3AwRdp34gXs-WnmE-22" value="YES" style="text;html=1;align=center;verticalAlign=middle;resizable=0;points=[];autosize=1;strokeColor=none;fillColor=none;fontSize=16;fontFamily=Helvetica;fontColor=default;" parent="1" vertex="1">
          <mxGeometry x="-3499" y="139" width="50" height="31" as="geometry" />
        </mxCell>
        <mxCell id="OkS-3AwRdp34gXs-WnmE-36" style="edgeStyle=orthogonalEdgeStyle;shape=connector;rounded=0;orthogonalLoop=1;jettySize=auto;html=1;exitX=0.5;exitY=1;exitDx=0;exitDy=0;entryX=0.5;entryY=0;entryDx=0;entryDy=0;labelBackgroundColor=default;strokeColor=default;fontFamily=Helvetica;fontSize=12;fontColor=default;endArrow=classic;startSize=8;endSize=8;" parent="1" source="OkS-3AwRdp34gXs-WnmE-27" target="OkS-3AwRdp34gXs-WnmE-33" edge="1">
          <mxGeometry relative="1" as="geometry" />
        </mxCell>
        <mxCell id="OkS-3AwRdp34gXs-WnmE-27" value="EVENT&lt;br&gt;WAITING&lt;br&gt;RESPONSE&lt;br&gt;TEMPERATURE" style="rounded=1;whiteSpace=wrap;html=1;fontSize=16;fillColor=#e1d5e7;strokeColor=#9673a6;" parent="1" vertex="1">
          <mxGeometry x="-3147" y="137" width="158" height="76" as="geometry" />
        </mxCell>
        <mxCell id="OkS-3AwRdp34gXs-WnmE-52" style="edgeStyle=orthogonalEdgeStyle;shape=connector;rounded=0;orthogonalLoop=1;jettySize=auto;html=1;exitX=1;exitY=0.5;exitDx=0;exitDy=0;exitPerimeter=0;entryX=1;entryY=0.5;entryDx=0;entryDy=0;labelBackgroundColor=default;strokeColor=default;fontFamily=Helvetica;fontSize=12;fontColor=default;endArrow=classic;startSize=8;endSize=8;" parent="1" source="OkS-3AwRdp34gXs-WnmE-30" target="VHgzWh024f2FJKamQpgE-2" edge="1">
          <mxGeometry relative="1" as="geometry">
            <Array as="points">
              <mxPoint x="-3400" y="363" />
              <mxPoint x="-3400" y="434" />
              <mxPoint x="-4244" y="434" />
              <mxPoint x="-4244" y="512" />
            </Array>
          </mxGeometry>
        </mxCell>
        <mxCell id="OkS-3AwRdp34gXs-WnmE-30" value="timer 5sg" style="strokeWidth=2;html=1;shape=mxgraph.flowchart.delay;whiteSpace=wrap;fontFamily=Helvetica;fontSize=12;fillColor=#dae8fc;strokeColor=#6c8ebf;flipH=1;" parent="1" vertex="1">
          <mxGeometry x="-3344" y="333" width="100" height="60" as="geometry" />
        </mxCell>
        <mxCell id="OkS-3AwRdp34gXs-WnmE-38" style="edgeStyle=orthogonalEdgeStyle;shape=connector;rounded=0;orthogonalLoop=1;jettySize=auto;html=1;exitX=0.5;exitY=1;exitDx=0;exitDy=0;entryX=0.5;entryY=0;entryDx=0;entryDy=0;labelBackgroundColor=default;strokeColor=default;fontFamily=Helvetica;fontSize=12;fontColor=default;endArrow=classic;startSize=8;endSize=8;" parent="1" source="OkS-3AwRdp34gXs-WnmE-33" target="OkS-3AwRdp34gXs-WnmE-37" edge="1">
          <mxGeometry relative="1" as="geometry" />
        </mxCell>
        <mxCell id="OkS-3AwRdp34gXs-WnmE-51" style="edgeStyle=orthogonalEdgeStyle;shape=connector;rounded=0;orthogonalLoop=1;jettySize=auto;html=1;exitX=0;exitY=0.5;exitDx=0;exitDy=0;entryX=0;entryY=0.5;entryDx=0;entryDy=0;entryPerimeter=0;labelBackgroundColor=default;strokeColor=default;fontFamily=Helvetica;fontSize=12;fontColor=default;endArrow=classic;startSize=8;endSize=8;" parent="1" source="OkS-3AwRdp34gXs-WnmE-33" target="OkS-3AwRdp34gXs-WnmE-30" edge="1">
          <mxGeometry relative="1" as="geometry" />
        </mxCell>
        <mxCell id="OkS-3AwRdp34gXs-WnmE-33" value="send&lt;br&gt;request&lt;br&gt;remote device" style="rounded=1;whiteSpace=wrap;html=1;fontFamily=Helvetica;fontSize=12;fillColor=#dae8fc;strokeColor=#6c8ebf;" parent="1" vertex="1">
          <mxGeometry x="-3128" y="333" width="120" height="60" as="geometry" />
        </mxCell>
        <mxCell id="OkS-3AwRdp34gXs-WnmE-40" style="edgeStyle=orthogonalEdgeStyle;shape=connector;rounded=0;orthogonalLoop=1;jettySize=auto;html=1;exitX=0.5;exitY=1;exitDx=0;exitDy=0;entryX=0.5;entryY=0;entryDx=0;entryDy=0;labelBackgroundColor=default;strokeColor=default;fontFamily=Helvetica;fontSize=12;fontColor=default;endArrow=classic;startSize=8;endSize=8;" parent="1" source="OkS-3AwRdp34gXs-WnmE-37" target="OkS-3AwRdp34gXs-WnmE-39" edge="1">
          <mxGeometry relative="1" as="geometry" />
        </mxCell>
        <mxCell id="OkS-3AwRdp34gXs-WnmE-37" value="&lt;div style=&quot;padding: 0px 0px 0px 2px;&quot;&gt;&lt;div style=&quot;font-family: monospace; font-size: 10pt;&quot;&gt;&lt;p style=&quot;background-color:#e8f2fe;margin:0;&quot;&gt;appuser_received_application_device_message&lt;/p&gt;&lt;/div&gt;&lt;/div&gt;" style="rounded=1;whiteSpace=wrap;html=1;fontFamily=Helvetica;fontSize=12;fillColor=#dae8fc;strokeColor=#6c8ebf;" parent="1" vertex="1">
          <mxGeometry x="-3244" y="493.5" width="352" height="60" as="geometry" />
        </mxCell>
        <mxCell id="OkS-3AwRdp34gXs-WnmE-42" style="edgeStyle=orthogonalEdgeStyle;shape=connector;rounded=0;orthogonalLoop=1;jettySize=auto;html=1;exitX=0.5;exitY=1;exitDx=0;exitDy=0;entryX=0.5;entryY=0;entryDx=0;entryDy=0;labelBackgroundColor=default;strokeColor=default;fontFamily=Helvetica;fontSize=12;fontColor=default;endArrow=classic;startSize=8;endSize=8;" parent="1" source="OkS-3AwRdp34gXs-WnmE-39" target="OkS-3AwRdp34gXs-WnmE-41" edge="1">
          <mxGeometry relative="1" as="geometry" />
        </mxCell>
        <mxCell id="OkS-3AwRdp34gXs-WnmE-39" value="&lt;div style=&quot;padding: 0px 0px 0px 2px;&quot;&gt;&lt;div style=&quot;font-family: monospace; font-size: 10pt;&quot;&gt;&lt;div style=&quot;padding: 0px 0px 0px 2px;&quot;&gt;&lt;div style=&quot;font-family: monospace; font-size: 10pt;&quot;&gt;&lt;p style=&quot;background-color:#e8f2fe;margin:0;&quot;&gt;appuser_reading_remote_temperature&lt;/p&gt;&lt;/div&gt;&lt;/div&gt;&lt;/div&gt;&lt;/div&gt;" style="rounded=1;whiteSpace=wrap;html=1;fontFamily=Helvetica;fontSize=12;fillColor=#dae8fc;strokeColor=#6c8ebf;" parent="1" vertex="1">
          <mxGeometry x="-3244" y="615" width="352" height="60" as="geometry" />
        </mxCell>
        <mxCell id="OkS-3AwRdp34gXs-WnmE-43" style="edgeStyle=orthogonalEdgeStyle;shape=connector;rounded=0;orthogonalLoop=1;jettySize=auto;html=1;exitX=0;exitY=0.5;exitDx=0;exitDy=0;entryX=1;entryY=0.5;entryDx=0;entryDy=0;labelBackgroundColor=default;strokeColor=default;fontFamily=Helvetica;fontSize=12;fontColor=default;endArrow=classic;startSize=8;endSize=8;" parent="1" source="OkS-3AwRdp34gXs-WnmE-41" target="VHgzWh024f2FJKamQpgE-1" edge="1">
          <mxGeometry relative="1" as="geometry" />
        </mxCell>
        <mxCell id="OkS-3AwRdp34gXs-WnmE-45" style="edgeStyle=orthogonalEdgeStyle;shape=connector;rounded=0;orthogonalLoop=1;jettySize=auto;html=1;exitX=0.5;exitY=1;exitDx=0;exitDy=0;entryX=1;entryY=0.5;entryDx=0;entryDy=0;labelBackgroundColor=default;strokeColor=default;fontFamily=Helvetica;fontSize=12;fontColor=default;endArrow=classic;startSize=8;endSize=8;" parent="1" source="OkS-3AwRdp34gXs-WnmE-41" target="VHgzWh024f2FJKamQpgE-37" edge="1">
          <mxGeometry relative="1" as="geometry" />
        </mxCell>
        <mxCell id="OkS-3AwRdp34gXs-WnmE-41" value="answer ok?" style="rhombus;whiteSpace=wrap;html=1;fontFamily=Helvetica;fontSize=12;fillColor=#dae8fc;strokeColor=#6c8ebf;" parent="1" vertex="1">
          <mxGeometry x="-3136" y="753" width="136" height="80" as="geometry" />
        </mxCell>
        <mxCell id="OkS-3AwRdp34gXs-WnmE-44" value="YES" style="text;html=1;align=center;verticalAlign=middle;resizable=0;points=[];autosize=1;strokeColor=none;fillColor=none;fontSize=16;fontFamily=Helvetica;fontColor=default;" parent="1" vertex="1">
          <mxGeometry x="-3214" y="759" width="50" height="31" as="geometry" />
        </mxCell>
        <mxCell id="OkS-3AwRdp34gXs-WnmE-46" value="NO" style="text;html=1;align=center;verticalAlign=middle;resizable=0;points=[];autosize=1;strokeColor=none;fillColor=none;fontSize=16;fontFamily=Helvetica;fontColor=default;" parent="1" vertex="1">
          <mxGeometry x="-3060" y="848" width="42" height="31" as="geometry" />
        </mxCell>
        <mxCell id="OkS-3AwRdp34gXs-WnmE-47" value="YES" style="text;html=1;align=center;verticalAlign=middle;resizable=0;points=[];autosize=1;strokeColor=none;fillColor=none;fontSize=16;fontFamily=Helvetica;fontColor=default;" parent="1" vertex="1">
          <mxGeometry x="-4489" y="984" width="50" height="31" as="geometry" />
        </mxCell>
        <mxCell id="OkS-3AwRdp34gXs-WnmE-53" value="TIMER EXPIRED" style="text;html=1;align=center;verticalAlign=middle;resizable=0;points=[];autosize=1;strokeColor=none;fillColor=none;fontSize=16;fontFamily=Helvetica;fontColor=default;" parent="1" vertex="1">
          <mxGeometry x="-3579" y="387" width="142" height="31" as="geometry" />
        </mxCell>
      </root>
    </mxGraphModel>
  </diagram>
  <diagram id="MHpKoY_W-x-NSb8bYC1a" name="FACTORY_START">
    <mxGraphModel dx="8085" dy="1101" grid="1" gridSize="10" guides="1" tooltips="1" connect="1" arrows="1" fold="1" page="1" pageScale="1" pageWidth="3300" pageHeight="2339" math="0" shadow="0">
      <root>
        <mxCell id="0" />
        <mxCell id="1" parent="0" />
        <mxCell id="xKsdoBfNqnD5Xf_6FYmn-5" style="edgeStyle=orthogonalEdgeStyle;rounded=0;orthogonalLoop=1;jettySize=auto;html=1;exitX=0.5;exitY=1;exitDx=0;exitDy=0;entryX=0.5;entryY=0;entryDx=0;entryDy=0;" edge="1" parent="1" source="gd6ESlc9Mj0fYWzwWNuL-1" target="xKsdoBfNqnD5Xf_6FYmn-4">
          <mxGeometry relative="1" as="geometry" />
        </mxCell>
        <mxCell id="gd6ESlc9Mj0fYWzwWNuL-1" value="STARTING" style="ellipse;whiteSpace=wrap;html=1;fillColor=#fff2cc;strokeColor=#d6b656;" vertex="1" parent="1">
          <mxGeometry x="-6080" y="100" width="110" height="60" as="geometry" />
        </mxCell>
        <mxCell id="EW75a2olSH3g4RD_NaEM-2" style="edgeStyle=orthogonalEdgeStyle;rounded=0;orthogonalLoop=1;jettySize=auto;html=1;exitX=0.5;exitY=1;exitDx=0;exitDy=0;entryX=0.5;entryY=0;entryDx=0;entryDy=0;" edge="1" parent="1" source="xKsdoBfNqnD5Xf_6FYmn-4" target="EW75a2olSH3g4RD_NaEM-1">
          <mxGeometry relative="1" as="geometry" />
        </mxCell>
        <mxCell id="xKsdoBfNqnD5Xf_6FYmn-4" value="is factory?" style="rhombus;whiteSpace=wrap;html=1;fontSize=16;fillColor=#dae8fc;strokeColor=#6c8ebf;shadow=0;" vertex="1" parent="1">
          <mxGeometry x="-6092" y="270" width="134" height="80" as="geometry" />
        </mxCell>
        <mxCell id="EW75a2olSH3g4RD_NaEM-4" style="edgeStyle=orthogonalEdgeStyle;rounded=0;orthogonalLoop=1;jettySize=auto;html=1;exitX=1;exitY=0.5;exitDx=0;exitDy=0;entryX=0;entryY=0.5;entryDx=0;entryDy=0;" edge="1" parent="1" source="EW75a2olSH3g4RD_NaEM-1" target="EW75a2olSH3g4RD_NaEM-3">
          <mxGeometry relative="1" as="geometry" />
        </mxCell>
        <mxCell id="EW75a2olSH3g4RD_NaEM-6" style="edgeStyle=orthogonalEdgeStyle;rounded=0;orthogonalLoop=1;jettySize=auto;html=1;exitX=0.5;exitY=1;exitDx=0;exitDy=0;entryX=0.5;entryY=0;entryDx=0;entryDy=0;" edge="1" parent="1" source="EW75a2olSH3g4RD_NaEM-1" target="EW75a2olSH3g4RD_NaEM-5">
          <mxGeometry relative="1" as="geometry" />
        </mxCell>
        <mxCell id="EW75a2olSH3g4RD_NaEM-1" value="EVENT&lt;br&gt;FACTORY" style="rounded=1;whiteSpace=wrap;html=1;fontSize=16;fillColor=#e1d5e7;strokeColor=#9673a6;" vertex="1" parent="1">
          <mxGeometry x="-6096" y="450" width="142" height="60" as="geometry" />
        </mxCell>
        <mxCell id="EW75a2olSH3g4RD_NaEM-3" value="FACTORY" style="ellipse;whiteSpace=wrap;html=1;fillColor=#fff2cc;strokeColor=#d6b656;" vertex="1" parent="1">
          <mxGeometry x="-5840" y="450" width="110" height="60" as="geometry" />
        </mxCell>
        <mxCell id="fNR-h9PbQToEipk7xnC3-3" style="edgeStyle=orthogonalEdgeStyle;rounded=0;orthogonalLoop=1;jettySize=auto;html=1;exitX=1;exitY=0.5;exitDx=0;exitDy=0;entryX=0;entryY=0.5;entryDx=0;entryDy=0;" edge="1" parent="1" source="EW75a2olSH3g4RD_NaEM-5" target="fNR-h9PbQToEipk7xnC3-1">
          <mxGeometry relative="1" as="geometry" />
        </mxCell>
        <mxCell id="qiGaApiPxAVMJQwlPylz-2" style="edgeStyle=orthogonalEdgeStyle;rounded=0;orthogonalLoop=1;jettySize=auto;html=1;exitX=0.5;exitY=1;exitDx=0;exitDy=0;entryX=0.5;entryY=0;entryDx=0;entryDy=0;" edge="1" parent="1" source="EW75a2olSH3g4RD_NaEM-5" target="qiGaApiPxAVMJQwlPylz-1">
          <mxGeometry relative="1" as="geometry" />
        </mxCell>
        <mxCell id="EW75a2olSH3g4RD_NaEM-5" value="EVENT&lt;br&gt;SMARTCONFIG" style="rounded=1;whiteSpace=wrap;html=1;fontSize=16;fillColor=#e1d5e7;strokeColor=#9673a6;" vertex="1" parent="1">
          <mxGeometry x="-6096" y="600" width="142" height="60" as="geometry" />
        </mxCell>
        <mxCell id="DHTQkavTgmdJYQFqRu2e-3" style="edgeStyle=orthogonalEdgeStyle;rounded=0;orthogonalLoop=1;jettySize=auto;html=1;exitX=1;exitY=0.5;exitDx=0;exitDy=0;" edge="1" parent="1" source="fNR-h9PbQToEipk7xnC3-1" target="DHTQkavTgmdJYQFqRu2e-2">
          <mxGeometry relative="1" as="geometry" />
        </mxCell>
        <mxCell id="fNR-h9PbQToEipk7xnC3-1" value="&lt;div style=&quot;padding: 0px 0px 0px 2px;&quot;&gt;&lt;div style=&quot;font-family: monospace; font-size: 10pt;&quot;&gt;&lt;p style=&quot;background-color:#e8f2fe;margin:0;&quot;&gt;appuser_notify_smartconfig&lt;/p&gt;&lt;/div&gt;&lt;/div&gt;" style="shape=process;whiteSpace=wrap;html=1;backgroundOutline=1;fontFamily=Helvetica;fontSize=12;fillColor=#e3c800;strokeColor=#B09500;fontColor=#000000;" vertex="1" parent="1">
          <mxGeometry x="-5800" y="600" width="328" height="60" as="geometry" />
        </mxCell>
        <mxCell id="qiGaApiPxAVMJQwlPylz-1" value="&lt;div style=&quot;padding: 0px 0px 0px 2px;&quot;&gt;&lt;div style=&quot;font-family: monospace; font-size: 10pt;&quot;&gt;&lt;p style=&quot;background-color:#e8f2fe;margin:0;&quot;&gt;task_smartconfig&lt;/p&gt;&lt;/div&gt;&lt;/div&gt;" style="shape=process;whiteSpace=wrap;html=1;backgroundOutline=1;fillColor=#dae8fc;strokeColor=#6c8ebf;" vertex="1" parent="1">
          <mxGeometry x="-6122" y="790" width="194" height="64" as="geometry" />
        </mxCell>
        <mxCell id="DHTQkavTgmdJYQFqRu2e-2" value="" style="sketch=0;pointerEvents=1;shadow=0;dashed=0;html=1;strokeColor=none;fillColor=#505050;labelPosition=center;verticalLabelPosition=bottom;verticalAlign=top;outlineConnect=0;align=center;shape=mxgraph.office.devices.lcd_monitor;fontSize=16;" vertex="1" parent="1">
          <mxGeometry x="-5250" y="605.5" width="58" height="49" as="geometry" />
        </mxCell>
        <mxCell id="DHTQkavTgmdJYQFqRu2e-4" value="lv_smatconfig" style="text;html=1;align=center;verticalAlign=middle;resizable=0;points=[];autosize=1;strokeColor=none;fillColor=none;" vertex="1" parent="1">
          <mxGeometry x="-5400" y="600" width="100" height="30" as="geometry" />
        </mxCell>
        <mxCell id="DHTQkavTgmdJYQFqRu2e-30" style="edgeStyle=orthogonalEdgeStyle;rounded=0;orthogonalLoop=1;jettySize=auto;html=1;exitX=1;exitY=0.5;exitDx=0;exitDy=0;" edge="1" parent="1" source="DHTQkavTgmdJYQFqRu2e-16" target="DHTQkavTgmdJYQFqRu2e-24">
          <mxGeometry relative="1" as="geometry" />
        </mxCell>
        <mxCell id="DHTQkavTgmdJYQFqRu2e-31" style="edgeStyle=orthogonalEdgeStyle;rounded=0;orthogonalLoop=1;jettySize=auto;html=1;exitX=0.5;exitY=1;exitDx=0;exitDy=0;entryX=0.5;entryY=0;entryDx=0;entryDy=0;" edge="1" parent="1" source="DHTQkavTgmdJYQFqRu2e-16" target="DHTQkavTgmdJYQFqRu2e-28">
          <mxGeometry relative="1" as="geometry" />
        </mxCell>
        <mxCell id="DHTQkavTgmdJYQFqRu2e-37" value="YES" style="edgeLabel;html=1;align=center;verticalAlign=middle;resizable=0;points=[];" vertex="1" connectable="0" parent="DHTQkavTgmdJYQFqRu2e-31">
          <mxGeometry x="-0.1714" relative="1" as="geometry">
            <mxPoint as="offset" />
          </mxGeometry>
        </mxCell>
        <mxCell id="DHTQkavTgmdJYQFqRu2e-16" value="wifi correct?" style="rhombus;whiteSpace=wrap;html=1;fontSize=16;fillColor=#dae8fc;strokeColor=#6c8ebf;shadow=0;" vertex="1" parent="1">
          <mxGeometry x="-6104" y="1210" width="134" height="80" as="geometry" />
        </mxCell>
        <mxCell id="DHTQkavTgmdJYQFqRu2e-20" style="edgeStyle=orthogonalEdgeStyle;rounded=0;orthogonalLoop=1;jettySize=auto;html=1;exitX=0.37;exitY=1;exitDx=0;exitDy=0;exitPerimeter=0;entryX=0.5;entryY=0;entryDx=0;entryDy=0;" edge="1" parent="1" source="DHTQkavTgmdJYQFqRu2e-17" target="DHTQkavTgmdJYQFqRu2e-16">
          <mxGeometry relative="1" as="geometry" />
        </mxCell>
        <mxCell id="DHTQkavTgmdJYQFqRu2e-17" value="" style="sketch=0;pointerEvents=1;shadow=0;dashed=0;html=1;strokeColor=none;labelPosition=center;verticalLabelPosition=bottom;verticalAlign=top;align=center;fillColor=#505050;shape=mxgraph.mscae.intune.device_os" vertex="1" parent="1">
          <mxGeometry x="-6070" y="980" width="90" height="120" as="geometry" />
        </mxCell>
        <mxCell id="DHTQkavTgmdJYQFqRu2e-19" style="edgeStyle=orthogonalEdgeStyle;rounded=0;orthogonalLoop=1;jettySize=auto;html=1;exitX=0.5;exitY=1;exitDx=0;exitDy=0;entryX=0.5;entryY=0;entryDx=0;entryDy=0;entryPerimeter=0;" edge="1" parent="1" source="qiGaApiPxAVMJQwlPylz-1" target="DHTQkavTgmdJYQFqRu2e-17">
          <mxGeometry relative="1" as="geometry" />
        </mxCell>
        <mxCell id="DHTQkavTgmdJYQFqRu2e-21" value="SSID AND PASSWORD WIFI" style="edgeLabel;html=1;align=center;verticalAlign=middle;resizable=0;points=[];" vertex="1" connectable="0" parent="DHTQkavTgmdJYQFqRu2e-19">
          <mxGeometry x="-0.0529" y="3" relative="1" as="geometry">
            <mxPoint as="offset" />
          </mxGeometry>
        </mxCell>
        <mxCell id="DHTQkavTgmdJYQFqRu2e-33" style="edgeStyle=orthogonalEdgeStyle;rounded=0;orthogonalLoop=1;jettySize=auto;html=1;exitX=1;exitY=0.5;exitDx=0;exitDy=0;entryX=0;entryY=0.5;entryDx=0;entryDy=0;" edge="1" parent="1" source="DHTQkavTgmdJYQFqRu2e-24" target="DHTQkavTgmdJYQFqRu2e-32">
          <mxGeometry relative="1" as="geometry" />
        </mxCell>
        <mxCell id="DHTQkavTgmdJYQFqRu2e-24" value="EVENT&lt;br&gt;SMARTCONFIG&lt;br&gt;END" style="rounded=1;whiteSpace=wrap;html=1;fontSize=16;fillColor=#e1d5e7;strokeColor=#9673a6;" vertex="1" parent="1">
          <mxGeometry x="-5880" y="1220" width="142" height="60" as="geometry" />
        </mxCell>
        <mxCell id="1iGYu3N9aLT6DbsOxaAI-2" style="edgeStyle=orthogonalEdgeStyle;rounded=0;orthogonalLoop=1;jettySize=auto;html=1;exitX=0.5;exitY=1;exitDx=0;exitDy=0;entryX=0.5;entryY=0;entryDx=0;entryDy=0;" edge="1" parent="1" source="DHTQkavTgmdJYQFqRu2e-28" target="1iGYu3N9aLT6DbsOxaAI-1">
          <mxGeometry relative="1" as="geometry" />
        </mxCell>
        <mxCell id="DHTQkavTgmdJYQFqRu2e-28" value="EVENT_WIFI_OK" style="rounded=1;whiteSpace=wrap;html=1;fontSize=16;fillColor=#e1d5e7;strokeColor=#9673a6;" vertex="1" parent="1">
          <mxGeometry x="-6108" y="1360" width="142" height="60" as="geometry" />
        </mxCell>
        <mxCell id="DHTQkavTgmdJYQFqRu2e-35" style="edgeStyle=orthogonalEdgeStyle;rounded=0;orthogonalLoop=1;jettySize=auto;html=1;exitX=1;exitY=0.5;exitDx=0;exitDy=0;" edge="1" parent="1" source="DHTQkavTgmdJYQFqRu2e-32" target="DHTQkavTgmdJYQFqRu2e-34">
          <mxGeometry relative="1" as="geometry" />
        </mxCell>
        <mxCell id="DHTQkavTgmdJYQFqRu2e-32" value="&lt;div style=&quot;padding: 0px 0px 0px 2px;&quot;&gt;&lt;div style=&quot;font-family: monospace; font-size: 10pt;&quot;&gt;&lt;p style=&quot;background-color:#e8f2fe;margin:0;&quot;&gt;appuser_notify_smartconfig_end&lt;/p&gt;&lt;/div&gt;&lt;/div&gt;" style="shape=process;whiteSpace=wrap;html=1;backgroundOutline=1;fontFamily=Helvetica;fontSize=12;fillColor=#e3c800;strokeColor=#B09500;fontColor=#000000;" vertex="1" parent="1">
          <mxGeometry x="-5640" y="1220" width="328" height="60" as="geometry" />
        </mxCell>
        <mxCell id="DHTQkavTgmdJYQFqRu2e-34" value="" style="sketch=0;pointerEvents=1;shadow=0;dashed=0;html=1;strokeColor=none;fillColor=#505050;labelPosition=center;verticalLabelPosition=bottom;verticalAlign=top;outlineConnect=0;align=center;shape=mxgraph.office.devices.lcd_monitor;fontSize=16;" vertex="1" parent="1">
          <mxGeometry x="-5050" y="1225.5" width="58" height="49" as="geometry" />
        </mxCell>
        <mxCell id="DHTQkavTgmdJYQFqRu2e-36" value="lv_screen_thermostat" style="text;html=1;align=center;verticalAlign=middle;resizable=0;points=[];autosize=1;strokeColor=none;fillColor=none;" vertex="1" parent="1">
          <mxGeometry x="-5300" y="1218" width="140" height="30" as="geometry" />
        </mxCell>
        <mxCell id="1iGYu3N9aLT6DbsOxaAI-4" style="edgeStyle=orthogonalEdgeStyle;rounded=0;orthogonalLoop=1;jettySize=auto;html=1;exitX=0.5;exitY=1;exitDx=0;exitDy=0;entryX=0.5;entryY=0;entryDx=0;entryDy=0;" edge="1" parent="1" source="1iGYu3N9aLT6DbsOxaAI-1" target="1iGYu3N9aLT6DbsOxaAI-3">
          <mxGeometry relative="1" as="geometry" />
        </mxCell>
        <mxCell id="1iGYu3N9aLT6DbsOxaAI-1" value="&lt;div style=&quot;padding: 0px 0px 0px 2px;&quot;&gt;&lt;div style=&quot;font-family: monospace; font-size: 10pt;&quot;&gt;&lt;div style=&quot;padding: 0px 0px 0px 2px;&quot;&gt;&lt;div style=&quot;font-family: monospace; font-size: 10pt;&quot;&gt;&lt;p style=&quot;background-color:#e8f2fe;margin:0;&quot;&gt;CONNECTIG_WIFI&lt;/p&gt;&lt;/div&gt;&lt;/div&gt;&lt;/div&gt;&lt;/div&gt;" style="rounded=1;whiteSpace=wrap;html=1;fontFamily=Helvetica;fontSize=12;fillColor=#dae8fc;strokeColor=#6c8ebf;" vertex="1" parent="1">
          <mxGeometry x="-6127.5" y="1500" width="181" height="60" as="geometry" />
        </mxCell>
        <mxCell id="1iGYu3N9aLT6DbsOxaAI-3" value="wifi correct?" style="rhombus;whiteSpace=wrap;html=1;fontSize=16;fillColor=#dae8fc;strokeColor=#6c8ebf;shadow=0;" vertex="1" parent="1">
          <mxGeometry x="-6104" y="1650" width="134" height="80" as="geometry" />
        </mxCell>
      </root>
    </mxGraphModel>
  </diagram>
</mxfile>
